<?xml version="1.0" encoding="UTF-8" standalone="no"?>
<!-- Created with Inkscape (http://www.inkscape.org/) -->

<svg
   xmlns:dc="http://purl.org/dc/elements/1.1/"
   xmlns:cc="http://creativecommons.org/ns#"
   xmlns:rdf="http://www.w3.org/1999/02/22-rdf-syntax-ns#"
   xmlns:svg="http://www.w3.org/2000/svg"
   xmlns="http://www.w3.org/2000/svg"
   xmlns:sodipodi="http://sodipodi.sourceforge.net/DTD/sodipodi-0.dtd"
   xmlns:inkscape="http://www.inkscape.org/namespaces/inkscape"
   width="144.49777mm"
   height="144.49777mm"
   viewBox="0 0 511.99998 511.99998"
   id="svg3382"
   version="1.1"
   inkscape:version="0.91 r13725"
   sodipodi:docname="logo.svg">
  <defs
     id="defs3384" />
  <sodipodi:namedview
     id="base"
     pagecolor="#ffffff"
     bordercolor="#666666"
     borderopacity="1.0"
     inkscape:pageopacity="0.0"
     inkscape:pageshadow="2"
     inkscape:zoom="0.49497475"
     inkscape:cx="530.67608"
     inkscape:cy="103.63545"
     inkscape:document-units="px"
     inkscape:current-layer="g3347"
     showgrid="false"
     fit-margin-top="0"
     fit-margin-left="0"
     fit-margin-right="0"
     fit-margin-bottom="0"
     inkscape:window-width="1920"
     inkscape:window-height="1017"
     inkscape:window-x="-8"
     inkscape:window-y="-8"
     inkscape:window-maximized="1" />
  <metadata
     id="metadata3387">
    <rdf:RDF>
      <cc:Work
         rdf:about="">
        <dc:format>image/svg+xml</dc:format>
        <dc:type
           rdf:resource="http://purl.org/dc/dcmitype/StillImage" />
        <dc:title></dc:title>
      </cc:Work>
    </rdf:RDF>
  </metadata>
  <g
     inkscape:label="Calque 1"
     inkscape:groupmode="layer"
     id="layer1"
     transform="translate(-119,-276.3622)">
    <g
       transform="translate(-56.42854,145.71427)"
       id="g3347">
      <path
         style="fill:#efd00c"
         d="M 403.92854,641.54697 C 314.49456,630.73963 231.39456,566.24134 195.00833,479.39299 c -8.05508,-19.22624 -13.21476,-41.12232 -16.0482,-68.1037 -2.69763,-25.68808 -1.45373,-49.49935 4.07123,-77.93298 12.22985,-62.93966 53.65066,-121.0585 115.75705,-162.42234 27.41976,-18.262 53.77671,-29.27712 87.14013,-36.41769 12.29406,-2.63122 16.68077,-3.06571 36,-3.56571 41.65187,-1.07798 70.39289,4.17686 105.33559,19.25896 62.04915,26.78188 117.07899,84.15062 142.50241,148.55909 10.71436,27.14409 15.19835,52.95962 15.09037,86.87931 -0.12673,39.81085 -7.17964,72.89312 -22.24564,104.3452 -38.08524,79.50747 -112.31774,137.38451 -192.68273,150.2294 -12.00015,1.91801 -54.09727,2.76278 -66,1.32444 z m -6.53063,-74.39904 c 0,-0.55 -0.43621,-0.325 -0.96937,0.5 -0.53316,0.825 -0.96937,1.95 -0.96937,2.5 0,0.55 0.43621,0.325 0.96937,-0.5 0.53316,-0.825 0.96937,-1.95 0.96937,-2.5 z m 63.66713,-28.47879 c 10.98262,-2.20765 22.26355,-6.93645 32.26328,-13.5243 9.4617,-6.2334 18.29108,-17.18815 25.65331,-31.82847 7.54745,-15.00864 7.21793,-17.43923 -1.60731,-11.85568 -13.41063,8.48464 -61.31707,19.37747 -85.94578,19.5421 -13.94682,0.0932 -21.47542,-1.73378 -30.35856,-7.3673 -5.02484,-3.18666 -5.59831,-4.351 -2.89144,-5.87062 2.10874,-1.18383 1.69914,-1.35288 -7.75,-3.19858 -10.07764,-1.96846 -23.28447,-9.18158 -31,-16.93113 -8.17209,-8.20813 -15.98353,-21.35593 -19.6212,-33.02536 -2.64065,-8.47107 -4.3788,-11.28021 -4.3788,-7.07688 0,1.03674 -1.12064,2.61926 -2.49031,3.51671 -2.43771,1.59725 -2.52223,1.56271 -4.00072,-1.63499 l -1.51041,-3.26671 0.57702,4 c 1.09865,7.61611 5.54835,19.03063 10.13553,26 12.51336,19.01173 32.84754,33.8699 62.28889,45.51444 5.775,2.28411 11.17803,4.76094 12.00673,5.50408 1.82594,1.63739 20.81183,1.86316 37.49327,0.44584 16.57244,-1.40805 38.24382,-7.59335 53.22483,-15.19107 9.43736,-4.78622 9.48946,-3.11011 0.29247,9.41025 -6.68455,9.10005 -16.55996,17.01826 -28.5173,22.86549 -13.74074,6.71933 -19.6107,7.90696 -39.5,7.99174 l -16.5,0.0703 2.77255,2.19445 c 1.5249,1.20694 5.1249,3.19281 8,4.41305 4.49338,1.90705 6.42107,2.14281 13.72745,1.67888 4.675,-0.29685 12.61142,-1.36617 17.6365,-2.37628 z M 442.453,450.22998 c 27.81422,-5.89675 50.00405,-24.08948 58.90696,-48.29591 1.99638,-5.42803 2.14803,-6.81914 1.1992,-11 -0.59742,-2.63238 -1.56581,-8.4852 -2.152,-13.00628 -1.26934,-9.78998 -3.54253,-16.74692 -8.66989,-26.53353 -6.62198,-12.63942 -22.24438,-26.24966 -33.15082,-28.88102 -7.63967,-1.8432 -23.65878,-2.73816 -31.65791,-1.76867 -10.61504,1.28653 -17.34948,3.27616 -27,7.97691 -16.39336,7.98518 -26.52409,18.89452 -32.14177,34.6121 -2.97976,8.33701 -3.35823,10.54877 -3.35823,19.62524 0,14.94452 4.64245,29.60696 12.88306,40.68911 5.49218,7.38601 12.38119,15.59434 14.94441,17.80643 4.22432,3.64564 11.94652,7.26589 18.57433,8.70784 8.07111,1.75596 23.50373,1.78904 31.62266,0.0678 z M 425.92854,418.3117 c -2.2,-0.73019 -5.44205,-2.07924 -7.20457,-2.99788 -5.18327,-2.70158 -13.37714,-11.61326 -16.18768,-17.60576 -2.37471,-5.06326 -2.60775,-6.67717 -2.60775,-18.06013 0,-11.05876 0.26013,-12.98682 2.25614,-16.7222 11.83719,-22.15241 33.95594,-21.37617 61.49386,2.15807 6.17022,5.27314 7.75,7.18188 7.75,9.36379 0,4.39886 -3.82487,16.96266 -6.41143,21.06003 -4.23846,6.71416 -21.75099,16.14031 -29.98653,16.14031 -1.22088,0 -3.04576,0.60397 -4.0553,1.34216 -1.75259,1.28153 -1.72858,1.41707 0.53138,3 3.70326,2.59387 9.91657,2.07983 16.45897,-1.36167 3.1571,-1.66073 5.19138,-2.35825 4.52063,-1.55003 -4.05723,4.88865 -18.82718,7.79914 -26.55772,5.23331 z m 130.09743,-46.27373 c 2.44946,-1.43548 5.27166,-2.39603 6.27155,-2.13455 1.09671,0.28679 2.29902,-0.29485 3.03045,-1.46605 0.91048,-1.45791 1.53908,-1.6704 2.52384,-0.85312 1.80077,1.49451 3.2096,-0.37634 4.49992,-5.97569 1.43597,-6.23138 1.31958,-10.65377 -0.34861,-13.24581 -0.78397,-1.21815 -2.56018,-6.84741 -3.94713,-12.50947 -3.20484,-13.08342 -6.02555,-19.19144 -13.29619,-28.79182 -9.7467,-12.86984 -10.12777,-13.47566 -9.64287,-15.32992 0.89623,-3.42719 -14.29506,-14.33576 -25.17858,-18.08023 -8.57701,-2.95093 -15.07214,-3.86741 -39.00981,-5.50442 -57.61686,-3.9402 -60.40354,-4.02111 -74.6522,-2.16751 -14.15711,1.84169 -27.92128,5.86977 -41.50845,12.14743 -9.786,4.5214 -10.91426,4.55638 -8.74713,0.27112 7.0653,-13.97082 22.7757,-25.5792 44.40778,-32.81281 8.83516,-2.95442 10.86467,-3.2317 29,-3.96212 10.725,-0.43197 20.321,-1.11407 21.32445,-1.51579 1.64713,-0.65941 1.53358,-0.99605 -1.16831,-3.46385 -2.95227,-2.69648 -3.23575,-2.74328 -20.9559,-3.45995 -18.69921,-0.75626 -23.28945,-0.3084 -35.92511,3.50519 -16.42311,4.95668 -31.206,15.77741 -40.92936,29.95933 -3.20595,4.67602 -11.57373,20.86589 -12.7634,24.69447 -0.62664,2.01664 -0.45029,2.12804 2.17629,1.37475 1.572,-0.45085 4.18189,-1.49658 5.79976,-2.32385 8.09917,-4.14138 37.52771,-12.64847 56.25593,-16.26226 21.77088,-4.20089 40.78332,-2.4143 74.18565,6.97121 12.65867,3.55689 18,4.32578 18,2.59113 0,-0.525 1.14545,-2.1 2.54545,-3.5 1.92618,-1.92617 3.57618,-2.54545 6.78208,-2.54545 5.36644,0 13.71825,2.14475 17.17715,4.41111 2.45776,1.61039 2.54123,1.88068 1.07952,3.49585 -0.87131,0.96279 -1.5842,2.12965 -1.5842,2.59304 0,0.46339 -0.74724,1.66821 -1.66054,2.67739 -0.91329,1.00918 -1.47579,1.97976 -1.25,2.15684 0.2258,0.17708 4.67811,2.98682 9.89403,6.24387 20.17147,12.59593 30.13081,25.55356 30.86848,40.16153 0.41943,8.30596 -0.67018,13.15663 -5.52569,24.59898 -3.17961,7.49298 -3.99816,10.66139 -2.75435,10.66139 0.31456,0 2.57604,-1.17448 5.0255,-2.60996 z m -81.4272,-169.41299 c -0.20733,-5.29121 -5.54901,-18.10052 -9.16036,-21.96648 -2.22656,-2.38354 -3.65109,-3.01057 -6.83965,-3.01057 -4.27366,0 -7.19692,1.97626 -7.1318,4.82143 0.0211,0.92321 2.06521,3.92857 4.54239,6.67857 2.47718,2.75 7.25877,8.27863 10.62574,12.28584 6.65924,7.92549 8.2368,8.16147 7.96368,1.19121 z"
         id="path3361"
         inkscape:connector-curvature="0" />
      <path
         style="fill:#17cde4"
         d="M 403.92854,641.54697 C 314.49456,630.73963 231.39456,566.24134 195.00833,479.39299 c -8.05508,-19.22624 -13.21476,-41.12232 -16.0482,-68.1037 -2.69763,-25.68808 -1.45373,-49.49935 4.07123,-77.93298 12.22985,-62.93966 53.65066,-121.0585 115.75705,-162.42234 27.41976,-18.262 53.77671,-29.27712 87.14013,-36.41769 12.29406,-2.63122 16.68077,-3.06571 36,-3.56571 41.65187,-1.07798 70.39289,4.17686 105.33559,19.25896 62.04915,26.78188 117.07899,84.15062 142.50241,148.55909 10.71436,27.14409 15.19835,52.95962 15.09037,86.87931 -0.12673,39.81085 -7.17964,72.89312 -22.24564,104.3452 -38.08524,79.50747 -112.31774,137.38451 -192.68273,150.2294 -12.00015,1.91801 -54.09727,2.76278 -66,1.32444 z m 18.53207,-45.72393 c 1.82867,-1.48076 2.28858,-2.9422 2.4389,-7.75 0.21844,-6.98639 4.67513,-18.343 10.09437,-25.72262 3.10051,-4.22213 5.04181,-5.51534 16.18612,-10.78259 14.01422,-6.62367 16.24854,-8.19648 16.24854,-11.43785 0,-1.83113 1.5079,-2.8403 8.83489,-5.91281 4.85919,-2.03766 12.33982,-5.99611 16.62364,-8.79655 12.17959,-7.96211 18.27614,-16.43238 32.22551,-44.77269 11.54599,-23.45747 11.58253,-23.51545 20.19144,-32.03969 8.14011,-8.06004 22.98873,-18.96031 25.82822,-18.96031 3.60731,0 -1.55331,30.73148 -6.96893,41.5 -4.90931,9.76178 -15.65399,26.54364 -26.04267,40.67544 -14.84966,20.2001 -20.6921,29.14039 -20.6921,31.66373 0,2.83451 5.52233,3.78864 13.42346,2.31927 10.99764,-2.04522 21.79602,-11.83239 24.61808,-22.31271 0.5878,-2.18291 1.4226,-8.16304 1.85511,-13.28916 0.90987,-10.7838 2.19208,-13.35348 14.00968,-28.07664 3.96426,-4.93896 11.54058,-15.72993 16.83625,-23.97993 5.29567,-8.25 12.25178,-19.02967 15.45802,-23.95482 3.20624,-4.92515 5.68701,-9.38234 5.51284,-9.90487 -0.17418,-0.52252 -2.09345,-1.47972 -4.26506,-2.1271 -11.31556,-3.37332 -17.58033,-8.76195 -24.27045,-20.87619 -4.80414,-8.69917 -5.60067,-9.63702 -8.1849,-9.63702 -1.57456,0 -3.97126,0.42143 -5.32602,0.9365 -2.95393,1.12309 -10.66701,2.35057 -10.66701,1.69758 0,-0.25439 1.575,-4.58972 3.5,-9.63408 1.925,-5.04436 3.5,-10.15783 3.5,-11.36327 0,-3.31719 2.87963,-6.98152 4.45742,-5.67207 1.76223,1.46253 3.18639,-0.45219 4.46577,-6.00403 1.43597,-6.23138 1.31958,-10.65377 -0.34861,-13.24581 -0.78397,-1.21815 -2.56018,-6.84741 -3.94713,-12.50947 -3.20484,-13.08342 -6.02555,-19.19144 -13.29619,-28.79182 -9.7467,-12.86984 -10.12777,-13.47566 -9.64287,-15.32992 0.89623,-3.42719 -14.29506,-14.33576 -25.17858,-18.08023 -8.57701,-2.95093 -15.07214,-3.86741 -39.00981,-5.50442 -57.61686,-3.9402 -60.40354,-4.02111 -74.6522,-2.16751 -14.15711,1.84169 -27.92128,5.86977 -41.50845,12.14743 -9.786,4.5214 -10.91426,4.55638 -8.74713,0.27112 7.0653,-13.97082 22.7757,-25.5792 44.40778,-32.81281 8.83516,-2.95442 10.86467,-3.2317 29,-3.96212 10.725,-0.43197 20.321,-1.11407 21.32445,-1.51579 1.64713,-0.65941 1.53358,-0.99605 -1.16831,-3.46385 -2.95227,-2.69648 -3.23575,-2.74328 -20.9559,-3.45995 -18.69921,-0.75626 -23.28945,-0.3084 -35.92511,3.50519 -16.45321,4.96577 -31.17587,15.75346 -40.98466,30.03057 -1.72731,2.51418 -7.44682,13.31418 -12.71002,24 -5.55835,11.28507 -11.25696,21.39163 -13.59541,24.11167 -3.82138,4.44495 -30.03451,25.13137 -33.55984,26.48417 -1.49868,0.5751 -1.59188,-0.18072 -0.95747,-7.76499 1.54982,-18.52772 4.75799,-29.65843 12.02068,-41.70561 3.03137,-5.02837 5.51159,-9.57198 5.51159,-10.09691 0,-1.43168 -5.02288,-5.09957 -6.98344,-5.09957 -1.46639,0 -9.32143,8.97894 -17.83769,20.38991 -1.27663,1.71055 -7.16335,11.21009 -13.08162,21.11009 -5.91827,9.9 -12.91598,21.47037 -15.55047,25.71193 -2.63448,4.24157 -4.55158,8.33317 -4.26022,9.09246 0.29137,0.75929 3.38359,2.17822 6.8716,3.15319 12.75545,3.56539 19.99096,8.77982 27.7431,19.99368 5.00062,7.23365 10.75921,11.54874 15.41209,11.54874 1.3982,0 14.92836,-7.01145 21.74446,-11.26818 2.93183,-1.83096 3.47655,-0.14443 2.94219,9.10942 -1.85985,32.20793 2.42653,55.52295 13.12363,71.38381 12.5314,18.58061 32.91303,33.33391 61.87637,44.78939 5.775,2.28411 11.17803,4.76094 12.00673,5.50408 1.82594,1.63739 20.81183,1.86316 37.49327,0.44584 16.57244,-1.40805 38.24382,-7.59335 53.22483,-15.19107 9.43736,-4.78622 9.48946,-3.11011 0.29247,9.41025 -6.68455,9.10005 -16.55996,17.01826 -28.5173,22.86549 -13.76515,6.73127 -19.61032,7.91098 -39.5,7.97215 l -16.5,0.0507 3,2.46033 c 1.65,1.35318 5.1375,3.17317 7.75,4.0444 2.6125,0.87124 4.75,1.9278 4.75,2.34792 0,0.42012 -3.64467,1.27927 -8.09927,1.90923 -12.91057,1.8258 -15.85457,3.03198 -21.56815,8.83666 -4.16485,4.23125 -5.60393,6.63287 -7.41723,12.37836 l -2.24981,7.12856 4.91723,9.46673 c 6.0355,11.6197 10.75825,16.35593 16.30933,16.35593 2.27206,0 4.82243,-0.75801 6.13997,-1.82489 z M 396.92854,485.72539 c -20.55735,-2.59571 -37.65829,-14.07014 -48.80004,-32.74397 -2.64002,-4.42473 -5.87289,-11.14739 -7.18414,-14.93923 -6.78257,-19.61361 -7.26113,-55.65984 -1.06733,-80.39426 1.3084,-5.225 2.70418,-11.75 3.10173,-14.5 l 0.72282,-5 -2.22684,1.98672 c -2.0987,1.87241 -2.29991,1.8868 -3.49676,0.25 -0.69846,-0.95519 -2.00782,-1.73672 -2.90968,-1.73672 -2.08335,0 -2.0898,0.0541 0.74287,-6.22149 3.1678,-7.01798 20.33282,-25.0927 29.67416,-31.2468 8.47909,-5.58606 25.36419,-14.58758 32.85447,-17.51487 7.19808,-2.81309 30.82162,-8.77562 37.92448,-9.57205 5.888,-0.66021 13.7153,0.40979 25.66426,3.50833 25.31464,6.56445 33.5,8.05304 33.5,6.09233 0,-0.525 1.14545,-2.1 2.54545,-3.5 1.92618,-1.92617 3.57618,-2.54545 6.78208,-2.54545 5.36644,0 13.71825,2.14475 17.17715,4.41111 2.45776,1.61039 2.54123,1.88068 1.07952,3.49585 -0.87131,0.96279 -1.5842,2.12965 -1.5842,2.59304 0,0.46339 -0.74724,1.66821 -1.66054,2.67739 -0.91329,1.00918 -1.47579,1.97976 -1.25,2.15684 0.2258,0.17708 4.67811,2.98682 9.89403,6.24387 20.17147,12.59593 30.13081,25.55356 30.86848,40.16153 0.60013,11.88441 -2.80709,21.33422 -15.775,43.75135 -7.30897,12.63474 -9.08245,16.50902 -7.5571,16.50902 0.28593,0 2.19843,-1.05153 4.25,-2.33673 3.08371,-1.93179 4.58276,-2.23506 8.65018,-1.75 2.70602,0.3227 5.07627,1.05998 5.26722,1.6384 0.38185,1.15669 -14.15267,24.62819 -23.20604,37.47496 -11.64603,16.52577 -29.05298,31.72936 -46.19799,40.35026 -6.42343,3.22986 -7.66165,3.29623 -6.95992,0.37311 1.76441,-7.34992 1.8782,-9.75 0.46226,-9.75 -0.79035,0 -6.35293,2.41682 -12.36129,5.37071 -6.00836,2.95389 -14.19414,6.54687 -18.19062,7.98439 -14.9603,5.38119 -37.59882,8.38086 -50.73367,6.72236 z M 442.453,450.22998 c 27.81422,-5.89675 50.00405,-24.08948 58.90696,-48.29591 1.99638,-5.42803 2.14803,-6.81914 1.1992,-11 -0.59742,-2.63238 -1.56581,-8.4852 -2.152,-13.00628 -2.07981,-16.04092 -8.754,-30.03886 -19.47248,-40.84008 -3.85338,-3.88313 -9.13625,-8.28526 -11.73972,-9.78253 -2.60347,-1.49727 -5.94195,-3.84219 -7.41884,-5.21093 -4.22767,-3.91807 -11.96907,-5.64608 -25.19244,-5.62338 -14.47113,0.0248 -27.27132,3.05513 -41.12276,9.73532 -22.86318,11.02631 -38.24945,35.9457 -36.73683,59.49848 1.02557,15.96906 4.96773,26.73431 14.49378,39.57967 8.8337,11.91177 23.94242,21.90339 37.6216,24.87972 8.06274,1.7543 23.49785,1.78649 31.61353,0.0659 z M 425.92854,418.3117 c -2.2,-0.73019 -5.44205,-2.07924 -7.20457,-2.99788 -5.18327,-2.70158 -13.37714,-11.61326 -16.18768,-17.60576 -2.37471,-5.06326 -2.60775,-6.67717 -2.60775,-18.06013 0,-11.05876 0.26013,-12.98682 2.25614,-16.7222 11.83719,-22.15241 33.95594,-21.37617 61.49386,2.15807 6.17022,5.27314 7.75,7.18188 7.75,9.36379 0,4.39886 -3.82487,16.96266 -6.41143,21.06003 -4.23846,6.71416 -21.75099,16.14031 -29.98653,16.14031 -1.22088,0 -3.04576,0.60397 -4.0553,1.34216 -1.75259,1.28153 -1.72858,1.41707 0.53138,3 3.70326,2.59387 9.91657,2.07983 16.45897,-1.36167 3.1571,-1.66073 5.19138,-2.35825 4.52063,-1.55003 -4.05723,4.88865 -18.82718,7.79914 -26.55772,5.23331 z M 410.72302,297.14967 c 3.41304,-0.82404 13.89837,-2.14605 23.30075,-2.9378 13.71775,-1.15514 18.01486,-1.88634 21.75,-3.70101 2.56012,-1.2438 4.65477,-2.55911 4.65477,-2.9229 0,-0.89686 -9.05063,-1.922 -17,-1.92555 -13.30013,-0.006 -28.21907,3.83282 -37.24025,9.58219 -5.87672,3.74534 -4.8587,4.17302 4.53473,1.90507 z m 217.20552,123.32517 c 5.11596,-1.26666 11.96501,-5.22502 13.9539,-8.06455 2.40746,-3.43714 2.02645,-10.3125 -0.67641,-12.20566 -3.89719,-2.7297 -6.2327,-1.91001 -11.23242,3.94222 -3.24874,3.8027 -6.52188,6.34753 -10.61106,8.25 -5.33797,2.48347 -5.9142,3.05101 -5.9236,5.83441 -0.006,1.69584 0.30379,3.39753 0.68781,3.78155 0.76676,0.76677 7.54281,0.0117 13.80178,-1.53797 z m -371.79807,-7.92466 c 2.36394,-1.14437 4.29807,-2.78862 4.29807,-3.65391 0,-2.39154 -5.72337,-10.79827 -9.77114,-14.35226 -1.97896,-1.73755 -5.42753,-3.9901 -7.66348,-5.00567 -4.60686,-2.09243 -13.56103,-2.49476 -15.36538,-0.69041 -1.79621,1.79621 -1.40643,9.76041 0.69985,14.3 2.25177,4.85314 7.74365,10.25868 11.69386,11.51002 4.03186,1.27719 10.99905,0.36553 16.10822,-2.10777 z m 381.99231,-20.31742 c 2.43866,-2.09918 2.79945,-3.11381 2.75752,-7.75487 -0.0336,-3.72215 -0.77852,-6.63905 -2.45898,-9.62901 -2.41787,-4.30203 -9.34926,-9.75035 -13.83759,-10.87685 -3.09537,-0.77689 -17.83903,2.59002 -19.35839,4.42074 -2.3681,2.85339 6.52622,15.62925 14.88413,21.37964 7.8363,5.39152 13.68073,6.18978 18.01331,2.46035 z M 230.8906,379.15568 c 4.05823,-5.48755 7.01203,-8.32258 11.03936,-10.59546 3.02422,-1.70676 5.49858,-3.51919 5.49858,-4.02762 0,-1.52403 -4.95051,-8.88467 -5.97552,-8.88467 -2.15446,0 -11.55543,4.26922 -15.73851,7.14726 -4.66033,3.20638 -9.25645,10.97527 -9.2762,15.67966 -0.011,2.60985 5.00832,8.17308 7.37394,8.17308 0.84566,0 4.03092,-3.37151 7.07835,-7.49225 z m 243.70817,-176.5307 c -0.20733,-5.29121 -5.54901,-18.10052 -9.16036,-21.96648 -2.22656,-2.38354 -3.65109,-3.01057 -6.83965,-3.01057 -4.27366,0 -7.19692,1.97626 -7.1318,4.82143 0.0211,0.92321 2.06521,3.92857 4.54239,6.67857 2.47718,2.75 7.25877,8.27863 10.62574,12.28584 6.65924,7.92549 8.2368,8.16147 7.96368,1.19121 z"
         id="path3359"
         inkscape:connector-curvature="0" />
      <path
         style="fill:#e112b6"
         d="M 403.92854,641.54697 C 314.49456,630.73963 231.39456,566.24134 195.00833,479.39299 c -8.05508,-19.22624 -13.21476,-41.12232 -16.0482,-68.1037 -2.69763,-25.68808 -1.45373,-49.49935 4.07123,-77.93298 12.22985,-62.93966 53.65066,-121.0585 115.75705,-162.42234 32.64218,-21.74022 69.64886,-35.4425 106.14013,-39.29999 11.99918,-1.26844 39.7932,-1.23765 52.64405,0.0583 55.26842,5.5736 107.1376,31.28176 150.354,74.52064 42.34704,42.36907 67.89615,91.33107 75.10746,143.935 2.36897,17.28075 2.45234,53.32349 0.15969,69.03406 -5.19735,35.61522 -15.41314,64.79534 -32.6745,93.33055 -41.80088,69.10217 -108.34872,116.16341 -180.5907,127.70999 -12.00015,1.91801 -54.09727,2.76278 -66,1.32444 z m 18.53207,-45.72393 c 1.82867,-1.48076 2.28858,-2.9422 2.4389,-7.75 0.21844,-6.98639 4.67513,-18.343 10.09437,-25.72262 3.10051,-4.22213 5.04181,-5.51534 16.18612,-10.78259 14.02347,-6.62805 16.24854,-8.19576 16.24854,-11.44826 0,-1.84295 1.37378,-2.76659 8.11752,-5.45771 9.53318,-3.80425 17.89446,-8.6204 23.92007,-13.7781 5.23515,-4.4811 14.84863,-17.39857 18.25744,-24.53221 18.63397,-38.99554 18.45685,-38.68904 27.59045,-47.74331 8.12689,-8.05629 22.97487,-18.96031 25.81822,-18.96031 3.60731,0 -1.55331,30.73148 -6.96893,41.5 -4.90931,9.76178 -15.65399,26.54364 -26.04267,40.67544 -14.84966,20.2001 -20.6921,29.14039 -20.6921,31.66373 0,2.83451 5.52233,3.78864 13.42346,2.31927 10.99764,-2.04522 21.79602,-11.83239 24.61808,-22.31271 0.5878,-2.18291 1.4226,-8.16304 1.85511,-13.28916 0.90987,-10.7838 2.19208,-13.35348 14.00968,-28.07664 3.96426,-4.93896 11.54058,-15.72993 16.83625,-23.97993 5.29567,-8.25 12.25178,-19.02967 15.45802,-23.95482 3.20624,-4.92515 5.68701,-9.38234 5.51284,-9.90487 -0.17418,-0.52252 -2.09345,-1.47972 -4.26506,-2.1271 -11.31556,-3.37332 -17.58033,-8.76195 -24.27045,-20.87619 -4.80414,-8.69917 -5.60067,-9.63702 -8.1849,-9.63702 -1.57456,0 -3.97126,0.42143 -5.32602,0.9365 -2.95393,1.12309 -10.66701,2.35057 -10.66701,1.69758 0,-0.25439 1.575,-4.58972 3.5,-9.63408 1.925,-5.04436 3.5,-10.15783 3.5,-11.36327 0,-3.31719 2.87963,-6.98152 4.45742,-5.67207 1.76223,1.46253 3.18639,-0.45219 4.46577,-6.00403 1.43597,-6.23138 1.31958,-10.65377 -0.34861,-13.24581 -0.78397,-1.21815 -2.56018,-6.84741 -3.94713,-12.50947 -3.20484,-13.08342 -6.02555,-19.19144 -13.29619,-28.79182 -9.72895,-12.8464 -10.20166,-13.58768 -9.62431,-15.09225 1.42653,-3.71747 -15.29119,-15.64675 -26.86889,-19.17285 -7.79278,-2.37337 -18.02352,-3.80524 -33.33806,-4.66593 -6.05,-0.34001 -19.01463,-1.26267 -28.81028,-2.05035 -43.46281,-3.49491 -63.63617,-0.89328 -90.7473,11.70309 -4.83327,2.24564 -9.29529,3.9138 -9.91559,3.70704 -1.51246,-0.50416 5.8206,-11.75085 10.67093,-16.36596 6.3127,-6.00657 17.60224,-13.03394 26.23522,-16.33056 14.02929,-5.35729 19.34231,-6.31081 39.56702,-7.10106 16.25203,-0.63503 19.69883,-1.05345 23.83186,-2.8931 14.39135,-6.40572 35.10955,-9.91992 47.93378,-8.1305 10.03029,1.39958 21.47024,7.03889 30.26733,14.92026 6.59775,5.91097 19.72231,15.4519 22.97016,16.69821 5.25605,2.01694 -3.40394,-9.99143 -17.48394,-24.24407 -15.98417,-16.18017 -28.90756,-23.73151 -50.82366,-29.69705 l -12.30448,-3.34927 -2.80185,-8.09157 c -3.2438,-9.36788 -7.33061,-16.78126 -10.05483,-18.23922 -4.76146,-2.54825 -12.03437,-0.31693 -12.03437,3.69214 0,0.86221 2.5875,4.48947 5.75,8.06056 12.2694,13.85459 15.19925,17.75309 15.20264,20.22891 0.009,6.82078 -7.05912,15.41673 -16.49612,20.06082 -4.82918,2.37652 -5.48318,2.43241 -25.45652,2.17559 -20.77221,-0.26709 -25.97281,0.25735 -37.72487,3.80426 -16.45321,4.96577 -31.17587,15.75346 -40.98466,30.03057 -1.72731,2.51418 -7.44682,13.31418 -12.71002,24 -5.55835,11.28507 -11.25696,21.39163 -13.59541,24.11167 -3.82138,4.44495 -30.03451,25.13137 -33.55984,26.48417 -1.49868,0.5751 -1.59188,-0.18072 -0.95747,-7.76499 1.54982,-18.52772 4.75799,-29.65843 12.02068,-41.70561 3.03137,-5.02837 5.51159,-9.57198 5.51159,-10.09691 0,-1.43168 -5.02288,-5.09957 -6.98344,-5.09957 -1.46639,0 -9.32143,8.97894 -17.83769,20.38991 -1.27663,1.71055 -7.16335,11.21009 -13.08162,21.11009 -5.91827,9.9 -12.91598,21.47037 -15.55047,25.71193 -2.63448,4.24157 -4.55158,8.33317 -4.26022,9.09246 0.29137,0.75929 3.38359,2.17822 6.8716,3.15319 12.75545,3.56539 19.99096,8.77982 27.7431,19.99368 5.00062,7.23365 10.75921,11.54874 15.41209,11.54874 1.3982,0 14.92836,-7.01145 21.74446,-11.26818 2.93183,-1.83096 3.47655,-0.14443 2.94219,9.10942 -1.85985,32.20793 2.42653,55.52295 13.12363,71.38381 12.5314,18.58061 32.91303,33.33391 61.87637,44.78939 5.775,2.28411 11.175,4.73135 12,5.43832 0.95913,0.82191 6.00728,1.48797 14,1.84717 6.875,0.30898 13.27637,0.86176 14.22526,1.22842 1.56618,0.60517 1.58923,0.9297 0.25,3.51949 -0.81139,1.56906 -1.47526,3.57927 -1.47526,4.46712 0,0.88785 -0.95799,3.84118 -2.12886,6.56295 -2.71833,6.31892 -4.20101,6.6893 -18.32566,4.5779 -19.03634,-2.84563 -19.88171,-2.33685 -10.79548,6.49723 6.62443,6.4406 8.48923,7.11069 15.62386,5.61419 2.9989,-0.62903 6.45492,-0.74826 8.16338,-0.28163 2.50962,0.68544 1.41278,1.07252 -7.17149,2.53082 -5.57384,0.94689 -11.53634,2.42106 -13.25,3.27595 -3.2503,1.62146 -4.20581,0.85719 -1.61575,-1.29237 0.825,-0.68469 1.5,-1.5687 1.5,-1.96446 0,-0.39576 -3.2625,-1.97944 -7.25,-3.5193 -9.46798,-3.65624 -10.92088,-4.91661 -9.64272,-8.36489 0.54053,-1.45824 1.67539,-3.17866 2.52192,-3.82314 1.34697,-1.02549 1.24771,-1.35953 -0.79502,-2.67532 -4.62619,-2.97989 -15.53564,-5.87155 -25.83418,-6.84761 -17.80085,-1.68709 -31.42424,-7.47666 -44.63483,-18.96858 -17.14676,-14.916 -25.37927,-31.32004 -25.35039,-50.51302 0.008,-5.40302 0.65323,-12.52368 1.43355,-15.82368 2.0512,-8.67456 7.78892,-23.21709 14.61051,-37.03108 5.73295,-11.60945 6.76327,-14.46892 5.21341,-14.46892 -1.06783,0 -18.59238,7.16297 -19.81087,8.09748 -0.57125,0.4381 -2.85138,0.90352 -5.06696,1.03425 l -4.02833,0.23768 0.43781,5.27939 c 0.24079,2.90366 0.11993,8.67154 -0.26858,12.81751 -0.63367,6.76228 -1.05599,7.89814 -4.10318,11.03591 -3.92493,4.0416 -3.74691,3.99287 -6.94105,1.89998 -2.27249,-1.48899 -2.66613,-1.45714 -5.78061,0.46772 -6.59036,4.07307 -7.07728,5.17979 -6.31267,14.34819 1.82522,21.88596 18.7782,55.17967 37.56934,73.78189 12.00692,11.8862 29.73424,26.09677 47.03285,37.70245 11.17505,7.49737 35.14812,21.59408 38.52636,22.65437 1.2645,0.39688 4.00355,4.36975 7.28525,10.56695 6.25969,11.82086 10.52463,16.07623 16.1124,16.07623 2.24117,0 4.79767,-0.7638 6.10806,-1.82489 z m 52.16793,-75.37511 c -0.66,-0.66 -1.2,-2.25 -1.2,-3.53333 0,-1.3276 -1.48937,-3.82271 -3.45537,-5.78871 -3.95126,-3.95126 -3.94807,-3.95535 5.45537,-6.98067 9.19193,-2.95728 25.10643,-9.47536 29.68198,-12.15681 6.48248,-3.79898 5.62175,-1.08732 -3.47144,10.93648 -4.37325,5.78267 -10.6923,11.03837 -19.2984,16.05089 -5.16807,3.01009 -6.01293,3.17136 -7.71214,1.47215 z m -75.2,-34.39724 c -12.70937,-1.40017 -23.96263,-5.98597 -34.75563,-14.16322 -9.47661,-7.1799 -19.41335,-21.36578 -23.7493,-33.90494 -6.7617,-19.55422 -7.23175,-55.63464 -1.04658,-80.3346 1.3084,-5.225 2.70418,-11.75 3.10173,-14.5 l 0.72282,-5 -2.22684,1.98672 c -2.0987,1.87241 -2.29991,1.8868 -3.49676,0.25 -0.69846,-0.95519 -2.00782,-1.73672 -2.90968,-1.73672 -2.08335,0 -2.0898,0.0541 0.74287,-6.22149 3.1678,-7.01798 20.33282,-25.0927 29.67416,-31.2468 8.47909,-5.58606 25.36419,-14.58758 32.85447,-17.51487 7.19808,-2.81309 30.82162,-8.77562 37.92448,-9.57205 5.888,-0.66021 13.7153,0.40979 25.66426,3.50833 25.31464,6.56445 33.5,8.05304 33.5,6.09233 0,-0.525 1.14545,-2.1 2.54545,-3.5 1.92618,-1.92617 3.57618,-2.54545 6.78208,-2.54545 5.36644,0 13.71825,2.14475 17.17715,4.41111 2.45776,1.61039 2.54123,1.88068 1.07952,3.49585 -0.87131,0.96279 -1.5842,2.12965 -1.5842,2.59304 0,0.46339 -0.74724,1.66821 -1.66054,2.67739 -0.91329,1.00918 -1.47579,1.97976 -1.25,2.15684 0.2258,0.17708 4.65996,2.98682 9.85369,6.24387 24.80615,15.5562 34.64215,32.99266 29.57016,52.41954 -2.489,9.53347 -5.40081,15.88813 -14.42419,31.47902 -7.31955,12.64697 -9.09529,16.52334 -7.56925,16.52334 0.28593,0 2.19843,-1.05153 4.25,-2.33673 3.08371,-1.93179 4.58276,-2.23506 8.65018,-1.75 2.70602,0.3227 5.07627,1.05998 5.26722,1.6384 0.38185,1.15669 -14.15267,24.62819 -23.20604,37.47496 -11.64603,16.52577 -29.05298,31.72936 -46.19799,40.35026 -6.42343,3.22986 -7.66165,3.29623 -6.95992,0.37311 1.76441,-7.34992 1.8782,-9.75 0.46226,-9.75 -0.79035,0 -6.35293,2.41682 -12.36129,5.37071 -14.01255,6.88899 -23.07231,10.11992 -35.19062,12.54982 -9.90943,1.98699 -24.90877,3.17903 -31.23367,2.48223 z M 442.453,450.22998 c 27.81422,-5.89675 50.00405,-24.08948 58.90696,-48.29591 1.99638,-5.42803 2.14803,-6.81914 1.1992,-11 -0.59742,-2.63238 -1.56581,-8.4852 -2.152,-13.00628 -2.07981,-16.04092 -8.754,-30.03886 -19.47248,-40.84008 -3.85338,-3.88313 -9.13625,-8.28526 -11.73972,-9.78253 -2.60347,-1.49727 -5.94195,-3.84219 -7.41884,-5.21093 -4.22767,-3.91807 -11.96907,-5.64608 -25.19244,-5.62338 -14.47113,0.0248 -27.27132,3.05513 -41.12276,9.73532 -22.86318,11.02631 -38.24945,35.9457 -36.73683,59.49848 1.02557,15.96906 4.96773,26.73431 14.49378,39.57967 8.8337,11.91177 23.94242,21.90339 37.6216,24.87972 8.06274,1.7543 23.49785,1.78649 31.61353,0.0659 z m -13.75476,-31.58897 c -10.86888,-2.26627 -20.84617,-10.58537 -26.07381,-21.74044 -2.42047,-5.16493 -2.69589,-6.88673 -2.69589,-16.85346 0,-10.71688 0.12105,-11.33745 3.5,-17.94215 4.21443,-8.23778 10.08937,-12.95211 18.28234,-14.67061 7.60405,-1.59497 16.75237,0.76475 27.06851,6.98205 9.42731,5.68163 21.25818,15.42433 22.1527,18.24271 0.92153,2.90348 -0.40443,7.98882 -2.08301,7.98882 -0.78129,0 -1.42054,-0.35702 -1.42054,-0.79338 0,-1.82452 -12.25029,-13.19077 -19.03207,-17.65863 -9.75882,-6.42914 -16.83894,-8.86415 -24.22905,-8.33291 -4.90445,0.35257 -6.28029,0.91734 -9.25243,3.79805 -5.01696,4.86264 -7.48645,12.23267 -7.48645,22.34288 0,14.6004 4.66184,23.91601 14.43179,28.83859 2.23751,1.12737 5.4789,3.56978 7.20308,5.42758 2.75739,2.97109 3.73857,3.37782 8.14845,3.37782 3.64383,0 6.58186,-0.82496 10.75377,-3.01951 3.1571,-1.66073 5.19138,-2.35825 4.52063,-1.55003 -3.68004,4.43417 -15.7093,7.24711 -23.78802,5.56262 z M 410.72302,297.14967 c 3.41304,-0.82404 13.89837,-2.14605 23.30075,-2.9378 13.71775,-1.15514 18.01486,-1.88634 21.75,-3.70101 2.56012,-1.2438 4.65477,-2.55911 4.65477,-2.9229 0,-0.89686 -9.05063,-1.922 -17,-1.92555 -13.30013,-0.006 -28.21907,3.83282 -37.24025,9.58219 -5.87672,3.74534 -4.8587,4.17302 4.53473,1.90507 z m 24.282,293.85619 c 1.30249,-0.85342 4.9526,-5.35638 8.11135,-10.00658 5.11781,-7.53424 6.40028,-8.76305 11.77768,-11.28491 3.31897,-1.55651 8.3917,-3.59262 11.27273,-4.52469 2.88103,-0.93207 5.46775,-2.06604 5.74828,-2.51993 0.7689,-1.24412 -6.52834,-8.13701 -10.27334,-9.70408 -2.91023,-1.21777 -4.0236,-1.14779 -9.71709,0.61075 -7.68771,2.3745 -11.43743,4.2238 -13.62394,6.71913 -4.16992,4.75888 -12.87215,24.1547 -12.87215,28.68989 0,4.76852 4.07139,5.62749 9.57648,2.02042 z M 627.92854,420.47484 c 5.11596,-1.26666 11.96501,-5.22502 13.9539,-8.06455 2.40746,-3.43714 2.02645,-10.3125 -0.67641,-12.20566 -3.89719,-2.7297 -6.2327,-1.91001 -11.23242,3.94222 -3.24874,3.8027 -6.52188,6.34753 -10.61106,8.25 -5.33797,2.48347 -5.9142,3.05101 -5.9236,5.83441 -0.006,1.69584 0.30379,3.39753 0.68781,3.78155 0.76676,0.76677 7.54281,0.0117 13.80178,-1.53797 z m -371.79807,-7.92466 c 2.36394,-1.14437 4.29807,-2.78862 4.29807,-3.65391 0,-2.39154 -5.72337,-10.79827 -9.77114,-14.35226 -1.97896,-1.73755 -5.42753,-3.9901 -7.66348,-5.00567 -4.60686,-2.09243 -13.56103,-2.49476 -15.36538,-0.69041 -1.79621,1.79621 -1.40643,9.76041 0.69985,14.3 2.25177,4.85314 7.74365,10.25868 11.69386,11.51002 4.03186,1.27719 10.99905,0.36553 16.10822,-2.10777 z m 381.99231,-20.31742 c 2.43866,-2.09918 2.79945,-3.11381 2.75752,-7.75487 -0.0336,-3.72215 -0.77852,-6.63905 -2.45898,-9.62901 -2.41787,-4.30203 -9.34926,-9.75035 -13.83759,-10.87685 -3.09537,-0.77689 -17.83903,2.59002 -19.35839,4.42074 -2.3681,2.85339 6.52622,15.62925 14.88413,21.37964 7.8363,5.39152 13.68073,6.18978 18.01331,2.46035 z M 230.8906,379.15568 c 4.05823,-5.48755 7.01203,-8.32258 11.03936,-10.59546 3.02422,-1.70676 5.49858,-3.51919 5.49858,-4.02762 0,-1.52403 -4.95051,-8.88467 -5.97552,-8.88467 -2.15446,0 -11.55543,4.26922 -15.73851,7.14726 -4.66033,3.20638 -9.25645,10.97527 -9.2762,15.67966 -0.011,2.60985 5.00832,8.17308 7.37394,8.17308 0.84566,0 4.03092,-3.37151 7.07835,-7.49225 z"
         id="path3357"
         inkscape:connector-curvature="0" />
      <path
         style="fill:#df2019"
         d="M 408.42854,641.95297 C 372.28143,638.0813 333.497,624.80928 304.08318,606.24603 248.90614,571.42344 204.90279,515.94064 188.39698,460.38 c -6.0593,-20.39639 -10.96844,-53.62039 -10.96844,-74.23207 0,-13.535 2.57302,-36.54153 5.98337,-53.5 13.43309,-66.79814 57.43505,-125.70442 125.77388,-168.37597 7.56791,-4.72549 29.48103,-15.28825 39.34981,-18.96775 12.74636,-4.75238 28.35962,-9.081 42.14583,-11.68451 14.27612,-2.69603 46.67572,-3.73097 64.74711,-2.06823 40.14714,3.69393 81.69002,19.26554 115.17165,43.17004 47.26851,33.74776 84.08145,81.26008 101.72761,131.2939 21.12643,59.90175 15.85342,135.51025 -13.32975,191.13252 -22.79218,43.44123 -55.14612,79.38885 -95.56951,106.1848 -31.59987,20.94699 -65.63384,33.48348 -102.65858,37.81449 -11.60496,1.35751 -42.71835,1.83647 -52.34142,0.80575 z m 14.03207,-46.12993 c 1.82867,-1.48076 2.28858,-2.9422 2.4389,-7.75 0.21844,-6.98639 4.67513,-18.343 10.09437,-25.72262 3.10051,-4.22213 5.04181,-5.51534 16.18612,-10.78259 14.02347,-6.62805 16.24854,-8.19576 16.24854,-11.44826 0,-1.84295 1.37378,-2.76659 8.11752,-5.45771 9.53318,-3.80425 17.89446,-8.6204 23.92007,-13.7781 5.23515,-4.4811 14.84863,-17.39857 18.25744,-24.53221 18.63397,-38.99554 18.45685,-38.68904 27.59045,-47.74331 8.12689,-8.05629 22.97487,-18.96031 25.81822,-18.96031 3.60731,0 -1.55331,30.73148 -6.96893,41.5 -4.90931,9.76178 -15.65399,26.54364 -26.04267,40.67544 -14.84966,20.2001 -20.6921,29.14039 -20.6921,31.66373 0,2.83451 5.52233,3.78864 13.42346,2.31927 10.99764,-2.04522 21.79602,-11.83239 24.61808,-22.31271 0.5878,-2.18291 1.4226,-8.16304 1.85511,-13.28916 0.90987,-10.7838 2.19208,-13.35348 14.00968,-28.07664 3.96426,-4.93896 11.54058,-15.72993 16.83625,-23.97993 5.29567,-8.25 12.25178,-19.02967 15.45802,-23.95482 3.20624,-4.92515 5.68701,-9.38234 5.51284,-9.90487 -0.17418,-0.52252 -2.09345,-1.47972 -4.26506,-2.1271 -11.30525,-3.37025 -17.58158,-8.76421 -24.25172,-20.84227 -4.34953,-7.876 -5.11389,-9.95708 -4.25,-11.57128 0.57934,-1.0825 1.05334,-3.58688 1.05334,-5.5653 0,-2.5132 0.52733,-3.79169 1.75,-4.2428 2.4335,-0.89786 3.2169,-2.30428 3.23469,-5.80716 0.008,-1.65858 0.86001,-4.58358 1.89242,-6.5 1.70203,-3.15941 2.23834,-3.45902 5.75,-3.21224 2.13009,0.14969 5.22289,-0.10763 6.87289,-0.57181 3.55931,-1.00132 3.7842,-2.46554 2.33465,-15.20035 -1.79384,-15.75954 -4.62981,-23.04516 -12.78485,-32.84443 -6.58561,-7.91341 -15.28083,-14.47999 -24.79485,-18.72491 -10.36663,-4.62533 -12.30547,-5.7474 -22.43337,-12.98294 -4.77313,-3.41 -10.64045,-7.14981 -13.03849,-8.31068 -7.59527,-3.67681 -19.33763,-6.04071 -35.57661,-7.16207 -8.63856,-0.59652 -23.96201,-1.73492 -34.05211,-2.52978 -44.24314,-3.48529 -64.01989,-0.94392 -91.30405,11.73284 -4.88392,2.26917 -9.20499,3.80063 -9.60237,3.40325 -0.39739,-0.39739 0.17176,-2.26367 1.26476,-4.1473 7.92561,-13.65856 22.27679,-24.02841 42.75007,-30.89025 9.85416,-3.30273 18.94137,-4.47401 35.0122,-4.51285 10.47903,-0.0253 13.8039,-0.41076 18.5,-2.14457 37.93727,-14.00655 60.23123,-12.335 80.75799,6.05505 6.59775,5.91097 19.72231,15.4519 22.97016,16.69821 5.25605,2.01694 -3.40394,-9.99143 -17.48394,-24.24407 -15.99969,-16.19588 -28.90362,-23.73037 -50.8931,-29.71603 l -12.3739,-3.36825 -2.25389,-6.90561 c -4.54103,-13.91315 -7.49686,-18.58997 -12.86989,-20.36323 -4.29767,-1.41836 -8.23582,0.002 -9.85417,3.55377 -1.15601,2.53715 -1.4282,2.61332 -7.23771,2.02539 -4.92279,-0.49819 -6.56111,-0.26481 -8.87975,1.26492 -3.08282,2.03389 -9.32516,9.22286 -12.57656,14.48375 -3.24532,5.25102 -8.32448,7.07106 -29.67202,10.63245 -13.98472,2.33307 -25.2438,6.65008 -34.17243,13.10258 -6.90722,4.99168 -7.80833,6.09164 -10.56365,12.89476 -2.02513,5.00022 -22.29588,33.21623 -30.17833,42.00692 -8.1343,9.07157 -15.93122,19.3514 -18.07287,23.82814 -4.20458,8.7889 -8.48761,35.16494 -5.71021,35.16494 2.89315,0 25.26695,-17.91244 31.48152,-25.20407 2.48252,-2.91276 5.28802,-6.80025 6.23445,-8.63886 0.94644,-1.83861 1.96091,-3.10281 2.25439,-2.80933 0.7888,0.7888 -5.0099,10.52199 -9.13621,15.33525 -3.48863,4.06942 -29.79542,24.70846 -33.11966,25.98409 -1.49868,0.5751 -1.59188,-0.18072 -0.95747,-7.76499 1.54982,-18.52772 4.75799,-29.65843 12.02068,-41.70561 3.03137,-5.02837 5.51159,-9.57198 5.51159,-10.09691 0,-1.43168 -5.02288,-5.09957 -6.98344,-5.09957 -1.46639,0 -9.32143,8.97894 -17.83769,20.38991 -1.27663,1.71055 -7.16335,11.21009 -13.08162,21.11009 -5.91827,9.9 -12.91598,21.47037 -15.55047,25.71193 -2.63448,4.24157 -4.55158,8.33317 -4.26022,9.09246 0.29137,0.75929 3.38359,2.17822 6.8716,3.15319 12.75545,3.56539 19.99096,8.77982 27.7431,19.99368 5.00062,7.23365 10.75921,11.54874 15.41209,11.54874 1.5989,0 19.13229,-9.21014 21.13665,-11.10289 1.6426,-1.55115 3.294,-0.98157 3.92247,1.35289 0.33316,1.2375 0.0995,7.15579 -0.51933,13.15176 -1.2922,12.52128 0.01,31.6506 3.23384,47.50754 1.05216,5.17511 1.91302,10.86521 1.91302,12.64466 0,8.42404 5.3027,19.29626 18.60033,38.13661 2.25518,3.19519 5.85518,9.1098 8,13.14359 5.11696,9.62353 7.48101,11.90455 13.23801,12.77305 6.36437,0.96013 23.49732,-0.95371 37.26256,-4.16243 9.86517,-2.29959 12.76133,-2.57791 21.52229,-2.06825 13.21449,0.76875 13.75915,0.98342 11.85207,4.67131 -0.81139,1.56906 -1.47526,3.57927 -1.47526,4.46712 0,0.88785 -0.95799,3.84118 -2.12886,6.56295 -2.71833,6.31892 -4.20101,6.6893 -18.32566,4.5779 -19.03634,-2.84563 -19.88171,-2.33685 -10.79548,6.49723 6.62443,6.4406 8.48923,7.11069 15.62386,5.61419 2.9989,-0.62903 6.45492,-0.74826 8.16338,-0.28163 2.50962,0.68544 1.41278,1.07252 -7.17149,2.53082 -5.57384,0.94689 -11.53634,2.42106 -13.25,3.27595 -3.2503,1.62146 -4.20581,0.85719 -1.61575,-1.29237 0.825,-0.68469 1.5,-1.5687 1.5,-1.96446 0,-0.39576 -3.2625,-1.97944 -7.25,-3.5193 -9.46798,-3.65624 -10.92088,-4.91661 -9.64272,-8.36489 0.54053,-1.45824 1.67539,-3.17866 2.52192,-3.82314 1.34697,-1.02549 1.24771,-1.35953 -0.79502,-2.67532 -4.62619,-2.97989 -15.53564,-5.87155 -25.83418,-6.84761 -17.80085,-1.68709 -31.42424,-7.47666 -44.63483,-18.96858 -17.14676,-14.916 -25.37927,-31.32004 -25.35039,-50.51302 0.008,-5.40302 0.65323,-12.52368 1.43355,-15.82368 2.0512,-8.67456 7.78892,-23.21709 14.61051,-37.03108 5.73295,-11.60945 6.76327,-14.46892 5.21341,-14.46892 -1.06783,0 -18.59238,7.16297 -19.81087,8.09748 -0.57125,0.4381 -2.85138,0.90352 -5.06696,1.03425 l -4.02833,0.23768 0.43781,5.27939 c 0.24079,2.90366 0.11993,8.67154 -0.26858,12.81751 -0.63367,6.76228 -1.05599,7.89814 -4.10318,11.03591 -3.92493,4.0416 -3.74691,3.99287 -6.94105,1.89998 -2.27249,-1.48899 -2.66613,-1.45714 -5.78061,0.46772 -6.59036,4.07307 -7.07728,5.17979 -6.31267,14.34819 1.82522,21.88596 18.7782,55.17967 37.56934,73.78189 12.00692,11.8862 29.73424,26.09677 47.03285,37.70245 11.17505,7.49737 35.14812,21.59408 38.52636,22.65437 1.2645,0.39688 4.00355,4.36975 7.28525,10.56695 6.25969,11.82086 10.52463,16.07623 16.1124,16.07623 2.24117,0 4.79767,-0.7638 6.10806,-1.82489 z m 52.16793,-75.37511 c -0.66,-0.66 -1.2,-2.25 -1.2,-3.53333 0,-1.3276 -1.48937,-3.82271 -3.45537,-5.78871 -3.95126,-3.95126 -3.94807,-3.95535 5.45537,-6.98067 9.19193,-2.95728 25.10643,-9.47536 29.68198,-12.15681 6.48248,-3.79898 5.62175,-1.08732 -3.47144,10.93648 -4.37325,5.78267 -10.6923,11.03837 -19.2984,16.05089 -5.16807,3.01009 -6.01293,3.17136 -7.71214,1.47215 z m -79.83131,-35.31471 c -37.03726,-6.4721 -59.37172,-38.75333 -59.36785,-85.80765 0.001,-14.69982 1.71607,-30.76928 4.44765,-41.67764 1.3084,-5.225 2.70418,-11.75 3.10173,-14.5 l 0.72282,-5 -2.22684,1.98672 c -2.0987,1.87241 -2.29991,1.8868 -3.49676,0.25 -0.69846,-0.95519 -2.00782,-1.73672 -2.90968,-1.73672 -2.08335,0 -2.0898,0.0541 0.74287,-6.22149 3.1678,-7.01798 20.33282,-25.0927 29.67416,-31.2468 8.47909,-5.58606 25.36419,-14.58758 32.85447,-17.51487 7.19808,-2.81309 30.82162,-8.77562 37.92448,-9.57205 6.36117,-0.71327 14.67425,0.54712 27.03,4.09813 9.74588,2.80095 11.13426,3.73081 11.13426,7.45708 0,3.72296 -1.7231,4.90549 -8.81121,6.047 -3.30615,0.53244 -7.96364,2.08426 -10.34998,3.44849 -2.75829,1.57686 -5.91093,2.48481 -8.65455,2.49246 -4.84166,0.0135 -8.18426,1.41226 -8.18426,3.42479 0,0.7383 -0.675,1.90257 -1.5,2.58726 -0.825,0.68469 -1.5,1.92768 -1.5,2.7622 0,0.83452 -0.7875,2.12087 -1.75,2.85855 -2.73272,2.09442 -0.4513,2.93879 12.74256,4.71615 14.60342,1.96723 22.50744,4.50589 22.50744,7.22905 0,2.90399 -3.77492,2.93583 -8.18017,0.069 -5.66304,-3.68537 -11.4659,-4.83485 -24.29363,-4.81227 -14.33227,0.0252 -27.19172,3.0792 -40.99382,9.73559 -22.86318,11.02631 -38.24945,35.9457 -36.73683,59.49848 1.04081,16.20634 5.53189,28.10416 15.43718,40.89641 7.01958,9.06547 21.70165,19.59056 32.11244,23.02035 7.23117,2.38228 25.59545,4.20969 33.29808,3.31346 2.83444,-0.32979 6.73001,0.0701 10,1.02651 8.18518,2.39403 15.30782,2.81383 19.31734,1.13855 3.94347,-1.6477 13.53941,-1.96807 13.53941,-0.45203 0,1.7295 3.61133,1.08696 5.4769,-0.97447 0.98278,-1.08596 2.74002,-2.26667 3.90498,-2.6238 3.07294,-0.94203 14.42737,-10.29292 20.07252,-16.53063 7.92799,-8.76016 20.89485,-34.16354 22.52702,-44.13267 0.56175,-3.43114 1.30829,-12.76343 1.65897,-20.73843 0.75147,-17.08932 -0.33304,-25.07934 -4.96107,-36.55033 -4.02219,-9.96937 -14.52198,-27.53659 -20.98574,-35.11131 -2.705,-3.16992 -4.41965,-5.92967 -3.81034,-6.13277 1.97063,-0.65688 11.37353,2.904 21.55273,8.16203 23.1673,11.96698 34.91363,31.08686 30.57256,49.76396 -2.0039,8.62162 -6.81394,19.32678 -15.18898,33.8044 -7.07791,12.23531 -8.81772,16.06402 -7.29968,16.06402 0.28593,0 2.19843,-1.05153 4.25,-2.33673 3.08371,-1.93179 4.58276,-2.23506 8.65018,-1.75 2.70602,0.3227 5.07627,1.05998 5.26722,1.6384 0.38185,1.15669 -14.15267,24.62819 -23.20604,37.47496 -11.64603,16.52577 -29.05298,31.72936 -46.19799,40.35026 -6.42343,3.22986 -7.66165,3.29623 -6.95992,0.37311 1.76441,-7.34992 1.8782,-9.75 0.46226,-9.75 -0.79035,0 -6.35293,2.41682 -12.36129,5.37071 -14.01255,6.88899 -23.07231,10.11992 -35.19062,12.54982 -13.65623,2.73828 -26.05403,3.27918 -35.86498,1.56476 z m 15.92579,-187.98355 c 3.41304,-0.82404 13.89837,-2.14605 23.30075,-2.9378 13.71775,-1.15514 18.01486,-1.88634 21.75,-3.70101 2.56012,-1.2438 4.65477,-2.55911 4.65477,-2.9229 0,-0.89686 -9.05063,-1.922 -17,-1.92555 -13.30013,-0.006 -28.21907,3.83282 -37.24025,9.58219 -5.87672,3.74534 -4.8587,4.17302 4.53473,1.90507 z m 13.20552,120.16986 c -8.97175,-3.51765 -16.9855,-11.20574 -21.31994,-20.45353 -2.39874,-5.11786 -2.68006,-6.87493 -2.68006,-16.7391 0,-10.47407 0.16576,-11.35773 3.34005,-17.80563 5.4566,-11.08393 15.59852,-16.76344 27.10787,-15.1805 5.45261,0.74992 16.60913,5.73029 23.57973,10.52619 5.46143,3.75756 15.68742,12.63312 16.76876,14.5543 1.16817,2.07544 -0.26968,8.42667 -1.9077,8.42667 -0.76379,0 -1.38871,-0.35702 -1.38871,-0.79338 0,-1.82452 -12.25029,-13.19077 -19.03207,-17.65863 -9.75882,-6.42914 -16.83894,-8.86415 -24.22905,-8.33291 -4.90445,0.35257 -6.28029,0.91734 -9.25243,3.79805 -5.01696,4.86264 -7.48645,12.23267 -7.48645,22.34288 0,14.9572 4.63158,23.88992 15.15064,29.22032 2.62765,1.33154 5.25502,3.31314 5.8386,4.40356 0.58357,1.09042 2.28723,2.64801 3.7859,3.46131 l 2.72486,1.47872 -4,-0.036 c -2.2,-0.0198 -5.35,-0.56535 -7,-1.21228 z m 133.05358,-24.9216 c 1.45616,-4.75974 2.3849,-5.33635 2.41601,-1.5 0.0223,2.75126 -0.38703,3.75 -1.53698,3.75 -1.16273,0 -1.38967,-0.58089 -0.87903,-2.25 z M 334.42854,297.70695 c 0,-0.51754 0.44485,-1.21592 0.98855,-1.55194 0.56686,-0.35034 0.7345,0.0511 0.39301,0.94098 -0.66479,1.73242 -1.38156,2.04939 -1.38156,0.61096 z m 100.57648,293.29891 c 1.30249,-0.85342 4.9526,-5.35638 8.11135,-10.00658 5.11781,-7.53424 6.40028,-8.76305 11.77768,-11.28491 3.31897,-1.55651 8.3917,-3.59262 11.27273,-4.52469 2.88103,-0.93207 5.46775,-2.06604 5.74828,-2.51993 0.7689,-1.24412 -6.52834,-8.13701 -10.27334,-9.70408 -2.91023,-1.21777 -4.0236,-1.14779 -9.71709,0.61075 -7.68771,2.3745 -11.43743,4.2238 -13.62394,6.71913 -4.16992,4.75888 -12.87215,24.1547 -12.87215,28.68989 0,4.76852 4.07139,5.62749 9.57648,2.02042 z M 627.92854,420.47484 c 5.11596,-1.26666 11.96501,-5.22502 13.9539,-8.06455 2.40746,-3.43714 2.02645,-10.3125 -0.67641,-12.20566 -3.89719,-2.7297 -6.2327,-1.91001 -11.23242,3.94222 -3.24874,3.8027 -6.52188,6.34753 -10.61106,8.25 -5.33797,2.48347 -5.9142,3.05101 -5.9236,5.83441 -0.006,1.69584 0.30379,3.39753 0.68781,3.78155 0.76676,0.76677 7.54281,0.0117 13.80178,-1.53797 z m -371.79807,-7.92466 c 2.36394,-1.14437 4.29807,-2.78862 4.29807,-3.65391 0,-2.39154 -5.72337,-10.79827 -9.77114,-14.35226 -1.97896,-1.73755 -5.42753,-3.9901 -7.66348,-5.00567 -4.60686,-2.09243 -13.56103,-2.49476 -15.36538,-0.69041 -1.79621,1.79621 -1.40643,9.76041 0.69985,14.3 2.25177,4.85314 7.74365,10.25868 11.69386,11.51002 4.03186,1.27719 10.99905,0.36553 16.10822,-2.10777 z m 381.99231,-20.31742 c 2.43866,-2.09918 2.79945,-3.11381 2.75752,-7.75487 -0.0336,-3.72215 -0.77852,-6.63905 -2.45898,-9.62901 -2.41787,-4.30203 -9.34926,-9.75035 -13.83759,-10.87685 -3.09537,-0.77689 -17.83903,2.59002 -19.35839,4.42074 -2.3681,2.85339 6.52622,15.62925 14.88413,21.37964 7.8363,5.39152 13.68073,6.18978 18.01331,2.46035 z M 230.8906,379.15568 c 4.05823,-5.48755 7.01203,-8.32258 11.03936,-10.59546 3.02422,-1.70676 5.49858,-3.51919 5.49858,-4.02762 0,-1.52403 -4.95051,-8.88467 -5.97552,-8.88467 -2.15446,0 -11.55543,4.26922 -15.73851,7.14726 -4.66033,3.20638 -9.25645,10.97527 -9.2762,15.67966 -0.011,2.60985 5.00832,8.17308 7.37394,8.17308 0.84566,0 4.03092,-3.37151 7.07835,-7.49225 z M 310.77258,276.0694 c 1.93025,-0.7407 12.1636,-13.00053 17.88063,-21.42147 2.4271,-3.575 6.78311,-9.95808 9.68003,-14.18462 7.01887,-10.24038 6.72545,-11.34714 -2.97095,-11.20643 -8.99153,0.13049 -14.3154,2.231 -21.22556,8.37447 -5.93997,5.28093 -8.42848,10.05101 -10.27309,19.69192 -2.32128,12.13225 -2.02141,14.99658 1.8149,17.33562 3.76701,2.29679 3.19627,2.13876 5.09404,1.41051 z"
         id="path3355"
         inkscape:connector-curvature="0" />
      <path
         style="fill:#0ee126"
         d="M 408.42854,641.95297 C 372.28143,638.0813 333.497,624.80928 304.08318,606.24603 248.90614,571.42344 204.90279,515.94064 188.39698,460.38 c -6.0593,-20.39639 -10.96844,-53.62039 -10.96844,-74.23207 0,-13.535 2.57302,-36.54153 5.98337,-53.5 13.43309,-66.79814 57.43505,-125.70442 125.77388,-168.37597 7.56791,-4.72549 29.48103,-15.28825 39.34981,-18.96775 12.74636,-4.75238 28.35962,-9.081 42.14583,-11.68451 14.27612,-2.69603 46.67572,-3.73097 64.74711,-2.06823 40.14714,3.69393 81.69002,19.26554 115.17165,43.17004 47.26851,33.74776 84.08145,81.26008 101.72761,131.2939 21.12643,59.90175 15.85342,135.51025 -13.32975,191.13252 -22.79218,43.44123 -55.14612,79.38885 -95.56951,106.1848 -31.59987,20.94699 -65.63384,33.48348 -102.65858,37.81449 -11.60496,1.35751 -42.71835,1.83647 -52.34142,0.80575 z m 14.03207,-46.12993 c 1.82867,-1.48076 2.28858,-2.9422 2.4389,-7.75 0.21844,-6.98639 4.67513,-18.343 10.09437,-25.72262 3.10051,-4.22213 5.04181,-5.51534 16.18612,-10.78259 14.02347,-6.62805 16.24854,-8.19576 16.24854,-11.44826 0,-1.84295 1.37378,-2.76659 8.11752,-5.45771 9.53318,-3.80425 17.89446,-8.6204 23.92007,-13.7781 5.23515,-4.4811 14.84863,-17.39857 18.25744,-24.53221 18.63397,-38.99554 18.45685,-38.68904 27.59045,-47.74331 8.12689,-8.05629 22.97487,-18.96031 25.81822,-18.96031 1.73956,0 1.66251,5.19228 -0.25227,16.99935 -2.76284,17.03644 -6.01139,25.40408 -14.62236,37.66438 -6.60374,9.40241 -14.05773,19.93881 -20.75397,29.33627 -17.95172,25.19334 -20.76905,30.23877 -17.96045,32.16457 0.76194,0.52244 4.66117,0.73284 8.66495,0.46754 9.11391,-0.6039 15.02744,-3.34541 21.81763,-10.11464 6.12478,-6.10587 7.96677,-10.99447 9.40419,-24.95851 1.20575,-11.71353 3.04533,-15.54955 14.00439,-29.20302 3.90955,-4.87077 11.44047,-15.60594 16.73537,-23.85594 20.32721,-31.6719 22.29073,-34.47071 24.54149,-34.98147 1.21953,-0.27675 5.36733,-0.97221 9.21733,-1.54546 8.10583,-1.20693 16.56933,-4.97446 19.47606,-8.66976 1.33725,-1.70004 2.02394,-4.06983 2.02394,-6.98468 0,-3.8897 -0.36379,-4.61319 -3.07487,-6.11514 -6.66422,-3.692 -6.75725,-3.88334 -3.25185,-6.68875 8.19109,-6.55542 3.54109,-21.28343 -8.68973,-27.52313 -4.64886,-2.37167 -7.81112,-2.47731 -14.39248,-0.48079 -2.69991,0.81905 -6.17884,1.48918 -7.73095,1.48918 -3.11199,0 -2.81929,0.69126 -5.29282,-12.5 -4.34472,-23.17031 -6.37835,-28.57309 -14.3657,-38.16548 -6.73301,-8.086 -15.37041,-14.63118 -24.94665,-18.90386 -10.36663,-4.62533 -12.30547,-5.7474 -22.43337,-12.98294 -4.77313,-3.41 -10.64045,-7.14981 -13.03849,-8.31068 -7.59527,-3.67681 -19.33763,-6.04071 -35.57661,-7.16207 -8.63856,-0.59652 -23.96201,-1.73492 -34.05211,-2.52978 -44.24314,-3.48529 -64.01989,-0.94392 -91.30405,11.73284 -4.88392,2.26917 -9.20499,3.80063 -9.60237,3.40325 -0.39739,-0.39739 0.17176,-2.26367 1.26476,-4.1473 7.92561,-13.65856 22.27679,-24.02841 42.75007,-30.89025 9.85416,-3.30273 18.94137,-4.47401 35.0122,-4.51285 10.47903,-0.0253 13.8039,-0.41076 18.5,-2.14457 37.93727,-14.00655 60.23123,-12.335 80.75799,6.05505 6.59775,5.91097 19.72231,15.4519 22.97016,16.69821 5.25605,2.01694 -3.40394,-9.99143 -17.48394,-24.24407 -15.99969,-16.19588 -28.90362,-23.73037 -50.8931,-29.71603 l -12.3739,-3.36825 -2.25389,-6.90561 c -4.54103,-13.91315 -7.49686,-18.58997 -12.86989,-20.36323 -4.29767,-1.41836 -8.23582,0.002 -9.85417,3.55377 -1.15601,2.53715 -1.4282,2.61332 -7.23771,2.02539 -4.92279,-0.49819 -6.56111,-0.26481 -8.87975,1.26492 -3.08282,2.03389 -9.32516,9.22286 -12.57656,14.48375 -3.23932,5.24132 -8.29271,7.05676 -29.58022,10.62676 -10.98631,1.84244 -23.41736,5.71586 -28.38961,8.84599 -8.84805,5.57001 -13.4442,9.95059 -16.26523,15.50236 -5.4856,10.79565 -26.78175,40.37308 -34.27325,47.60085 -1.96455,1.89539 -3.57191,3.1702 -3.57191,2.8329 0,-1.92235 4.47515,-10.55621 6.90743,-13.32642 3.6753,-4.18594 22.10054,-30.66045 25.20765,-36.2199 3.09251,-5.53332 1.88666,-6.47494 -7.61508,-5.94647 -8.62481,0.47971 -14.36856,2.93701 -21.1142,9.03311 -6.0202,5.44052 -8.91455,11.46868 -10.88348,22.66744 -2.61172,14.85472 -3.00241,15.59818 -18.84982,35.87058 -1.56613,2.00342 -7.67785,11.74259 -13.58162,21.64259 -5.90376,9.9 -12.88961,21.47037 -15.5241,25.71193 -2.63448,4.24157 -4.55158,8.33317 -4.26022,9.09246 0.29137,0.75929 3.38359,2.17822 6.8716,3.15319 12.75545,3.56539 19.99096,8.77982 27.7431,19.99368 5.00062,7.23365 10.75921,11.54874 15.41209,11.54874 1.5989,0 19.13229,-9.21014 21.13665,-11.10289 1.64166,-1.55026 3.29343,-0.98213 3.93343,1.35289 0.33918,1.2375 0.0877,6.71439 -0.55882,12.17088 -1.37333,11.59044 0.0531,32.8801 3.24888,48.48842 1.05958,5.17511 1.92651,10.86521 1.92651,12.64466 0,8.42404 5.3027,19.29626 18.60033,38.13661 2.25518,3.19519 5.85518,9.1098 8,13.14359 5.11696,9.62353 7.48101,11.90455 13.23801,12.77305 6.36437,0.96013 23.49732,-0.95371 37.26256,-4.16243 9.86517,-2.29959 12.76133,-2.57791 21.52229,-2.06825 13.21449,0.76875 13.75915,0.98342 11.85207,4.67131 -0.81139,1.56906 -1.47526,3.57927 -1.47526,4.46712 0,0.88785 -0.95799,3.84118 -2.12886,6.56295 -2.71833,6.31892 -4.20101,6.6893 -18.32566,4.5779 -19.03634,-2.84563 -19.88171,-2.33685 -10.79548,6.49723 6.62443,6.4406 8.48923,7.11069 15.62386,5.61419 2.9989,-0.62903 6.45492,-0.74826 8.16338,-0.28163 2.50962,0.68544 1.41278,1.07252 -7.17149,2.53082 -5.57384,0.94689 -11.53634,2.42106 -13.25,3.27595 -3.2503,1.62146 -4.20581,0.85719 -1.61575,-1.29237 0.825,-0.68469 1.5,-1.5687 1.5,-1.96446 0,-0.39576 -3.2625,-1.97944 -7.25,-3.5193 -9.46798,-3.65624 -10.92088,-4.91661 -9.64272,-8.36489 0.54053,-1.45824 1.67539,-3.17866 2.52192,-3.82314 1.34697,-1.02549 1.24771,-1.35953 -0.79502,-2.67532 -4.62619,-2.97989 -15.53564,-5.87155 -25.83418,-6.84761 -17.80085,-1.68709 -31.42424,-7.47666 -44.63483,-18.96858 -17.14676,-14.916 -25.37927,-31.32004 -25.35039,-50.51302 0.008,-5.40302 0.65323,-12.52368 1.43355,-15.82368 2.0512,-8.67456 7.78892,-23.21709 14.61051,-37.03108 5.73295,-11.60945 6.76327,-14.46892 5.21341,-14.46892 -1.06783,0 -18.59238,7.16297 -19.81087,8.09748 -0.57125,0.4381 -2.85138,0.90352 -5.06696,1.03425 l -4.02833,0.23768 0.43781,5.27939 c 0.24079,2.90366 0.11993,8.67154 -0.26858,12.81751 -0.63367,6.76228 -1.05599,7.89814 -4.10318,11.03591 -3.92493,4.0416 -3.74691,3.99287 -6.94105,1.89998 -2.27249,-1.48899 -2.66613,-1.45714 -5.78061,0.46772 -6.59036,4.07307 -7.07728,5.17979 -6.31267,14.34819 1.82522,21.88596 18.7782,55.17967 37.56934,73.78189 12.00692,11.8862 29.73424,26.09677 47.03285,37.70245 11.17505,7.49737 35.14812,21.59408 38.52636,22.65437 1.2645,0.39688 4.00355,4.36975 7.28525,10.56695 6.25969,11.82086 10.52463,16.07623 16.1124,16.07623 2.24117,0 4.79767,-0.7638 6.10806,-1.82489 z m 52.16793,-75.37511 c -0.66,-0.66 -1.2,-2.25 -1.2,-3.53333 0,-1.3276 -1.48937,-3.82271 -3.45537,-5.78871 -3.95126,-3.95126 -3.94807,-3.95535 5.45537,-6.98067 9.19193,-2.95728 25.10643,-9.47536 29.68198,-12.15681 6.48248,-3.79898 5.62175,-1.08732 -3.47144,10.93648 -4.37325,5.78267 -10.6923,11.03837 -19.2984,16.05089 -5.16807,3.01009 -6.01293,3.17136 -7.71214,1.47215 z m -79.83131,-35.31471 c -22.76402,-3.97791 -40.06528,-17.65371 -50.47444,-39.89759 -5.31913,-11.36672 -8.91758,-28.61598 -8.87894,-42.56147 0.0224,-8.09005 2.79265,-10.91183 4.40515,-4.48712 1.40234,5.58738 10.94915,23.02074 18.07518,33.00699 14.95829,20.96216 40.70042,34.70005 70.48201,37.61436 11.86705,1.16126 13.72473,1.06639 37.49998,-1.91513 3.53565,-0.44339 3.83219,-0.32356 2.6687,1.07835 -0.71991,0.86744 -3.63485,2.88119 -6.47763,4.475 -18.48222,10.36205 -48.36561,15.99532 -67.30001,12.68661 z m 29.13131,-67.81369 c -8.97175,-3.51765 -16.9855,-11.20574 -21.31994,-20.45353 -2.39874,-5.11786 -2.68006,-6.87493 -2.68006,-16.7391 0,-10.47407 0.16576,-11.35773 3.34005,-17.80563 5.4566,-11.08393 15.59852,-16.76344 27.10787,-15.1805 5.45261,0.74992 16.60913,5.73029 23.57973,10.52619 5.46143,3.75756 15.68742,12.63312 16.76876,14.5543 1.16817,2.07544 -0.26968,8.42667 -1.9077,8.42667 -0.76379,0 -1.38871,-0.35702 -1.38871,-0.79338 0,-1.82452 -12.25029,-13.19077 -19.03207,-17.65863 -9.75882,-6.42914 -16.83894,-8.86415 -24.22905,-8.33291 -4.90445,0.35257 -6.28029,0.91734 -9.25243,3.79805 -5.01696,4.86264 -7.48645,12.23267 -7.48645,22.34288 0,14.9572 4.63158,23.88992 15.15064,29.22032 2.62765,1.33154 5.25502,3.31314 5.8386,4.40356 0.58357,1.09042 2.28723,2.64801 3.7859,3.46131 l 2.72486,1.47872 -4,-0.036 c -2.2,-0.0198 -5.35,-0.56535 -7,-1.21228 z m 110.59285,-27.38949 c 0.43204,-2.63016 1.10026,-11.53211 1.48493,-19.78211 0.82205,-17.63036 -0.20865,-25.42621 -4.89846,-37.05033 -4.02219,-9.96937 -14.52198,-27.53659 -20.98574,-35.11131 -2.705,-3.16992 -4.41965,-5.92967 -3.81034,-6.13277 1.97063,-0.65688 11.37353,2.904 21.55273,8.16203 13.02074,6.72581 23.02746,16.1611 27.77685,26.19066 7.31609,15.44979 3.09839,33.39445 -13.85942,58.96647 -6.98222,10.52904 -8.35655,11.42955 -7.26055,4.75736 z m -99.51637,201.07582 c 1.30249,-0.85342 4.9526,-5.35638 8.11135,-10.00658 5.11781,-7.53424 6.40028,-8.76305 11.77768,-11.28491 3.31897,-1.55651 8.3917,-3.59262 11.27273,-4.52469 2.88103,-0.93207 5.46775,-2.06604 5.74828,-2.51993 0.7689,-1.24412 -6.52834,-8.13701 -10.27334,-9.70408 -2.91023,-1.21777 -4.0236,-1.14779 -9.71709,0.61075 -7.68771,2.3745 -11.43743,4.2238 -13.62394,6.71913 -4.16992,4.75888 -12.87215,24.1547 -12.87215,28.68989 0,4.76852 4.07139,5.62749 9.57648,2.02042 z M 256.13047,412.55018 c 2.36394,-1.14437 4.29807,-2.78862 4.29807,-3.65391 0,-2.39154 -5.72337,-10.79827 -9.77114,-14.35226 -1.97896,-1.73755 -5.42753,-3.9901 -7.66348,-5.00567 -4.60686,-2.09243 -13.56103,-2.49476 -15.36538,-0.69041 -1.79621,1.79621 -1.40643,9.76041 0.69985,14.3 2.25177,4.85314 7.74365,10.25868 11.69386,11.51002 4.03186,1.27719 10.99905,0.36553 16.10822,-2.10777 z m -25.23987,-33.3945 c 4.05823,-5.48755 7.01203,-8.32258 11.03936,-10.59546 3.02422,-1.70676 5.49858,-3.51919 5.49858,-4.02762 0,-1.52403 -4.95051,-8.88467 -5.97552,-8.88467 -2.15446,0 -11.55543,4.26922 -15.73851,7.14726 -4.66033,3.20638 -9.25645,10.97527 -9.2762,15.67966 -0.011,2.60985 5.00832,8.17308 7.37394,8.17308 0.84566,0 4.03092,-3.37151 7.07835,-7.49225 z"
         id="path3353"
         inkscape:connector-curvature="0" />
      <path
         style="fill:#211ab9"
         d="M 408.42854,641.95297 C 372.28143,638.0813 333.497,624.80928 304.08318,606.24603 248.90614,571.42344 204.90279,515.94064 188.39698,460.38 c -6.0593,-20.39639 -10.96844,-53.62039 -10.96844,-74.23207 0,-13.535 2.57302,-36.54153 5.98337,-53.5 13.43309,-66.79814 57.43505,-125.70442 125.77388,-168.37597 7.56791,-4.72549 29.48103,-15.28825 39.34981,-18.96775 12.74636,-4.75238 28.35962,-9.081 42.14583,-11.68451 14.27612,-2.69603 46.67572,-3.73097 64.74711,-2.06823 40.14714,3.69393 81.69002,19.26554 115.17165,43.17004 47.26851,33.74776 84.08145,81.26008 101.72761,131.2939 21.12643,59.90175 15.85342,135.51025 -13.32975,191.13252 -22.79218,43.44123 -55.14612,79.38885 -95.56951,106.1848 -31.59987,20.94699 -65.63384,33.48348 -102.65858,37.81449 -11.60496,1.35751 -42.71835,1.83647 -52.34142,0.80575 z m 14.55786,-46.52921 c 1.55517,-1.2233 4.21583,-2.27239 5.91258,-2.33131 4.75655,-0.16517 7.97403,-2.90194 14.21739,-12.09317 5.09474,-7.50028 6.42451,-8.7793 11.77768,-11.32815 3.31897,-1.5803 10.75949,-4.06715 16.53449,-5.52634 14.5448,-3.67509 23.89871,-7.79515 31.88554,-14.04441 5.59532,-4.37804 8.66004,-8.06666 17.15016,-20.64153 16.33394,-24.1925 36.78916,-50.36325 36.91949,-47.23541 0.0246,0.59153 -2.31769,4.23512 -5.20519,8.09686 -2.8875,3.86174 -7.5,10.25299 -10.25,14.20277 -2.75,3.94978 -8.76072,12.45613 -13.35715,18.903 -8.68031,12.17485 -12.14285,18.06691 -12.14285,20.66297 0,2.13089 4.14372,2.9333 11.2904,2.18633 7.96555,-0.83257 14.0286,-3.85112 20.30683,-10.10997 6.12478,-6.10587 7.96677,-10.99447 9.40419,-24.95851 1.20575,-11.71353 3.04533,-15.54955 14.00439,-29.20302 3.90955,-4.87077 11.44047,-15.60594 16.73537,-23.85594 20.32721,-31.6719 22.29073,-34.47071 24.54149,-34.98147 1.21953,-0.27675 5.36733,-0.97221 9.21733,-1.54546 8.10583,-1.20693 16.56933,-4.97446 19.47606,-8.66976 1.33725,-1.70004 2.02394,-4.06983 2.02394,-6.98468 0,-3.8897 -0.36379,-4.61319 -3.07487,-6.11514 -6.66422,-3.692 -6.75725,-3.88334 -3.25185,-6.68875 8.19109,-6.55542 3.54109,-21.28343 -8.68973,-27.52313 -4.64886,-2.37167 -7.81112,-2.47731 -14.39248,-0.48079 -2.69991,0.81905 -6.17884,1.48918 -7.73095,1.48918 -3.11199,0 -2.81929,0.69126 -5.29282,-12.5 -4.34472,-23.17031 -6.37835,-28.57309 -14.3657,-38.16548 -6.73301,-8.086 -15.37041,-14.63118 -24.94665,-18.90386 -10.36663,-4.62533 -12.30547,-5.7474 -22.43337,-12.98294 -4.77313,-3.41 -10.64045,-7.14981 -13.03849,-8.31068 -7.59527,-3.67681 -19.33763,-6.04071 -35.57661,-7.16207 -8.63856,-0.59652 -23.96201,-1.73492 -34.05211,-2.52978 -44.24314,-3.48529 -64.01989,-0.94392 -91.30405,11.73284 -4.88392,2.26917 -9.20499,3.80063 -9.60237,3.40325 -0.39739,-0.39739 0.17176,-2.26367 1.26476,-4.1473 7.92561,-13.65856 22.27679,-24.02841 42.75007,-30.89025 9.85416,-3.30273 18.94137,-4.47401 35.0122,-4.51285 10.47903,-0.0253 13.8039,-0.41076 18.5,-2.14457 37.93727,-14.00655 60.23123,-12.335 80.75799,6.05505 6.59775,5.91097 19.72231,15.4519 22.97016,16.69821 5.25605,2.01694 -3.40394,-9.99143 -17.48394,-24.24407 -15.99969,-16.19588 -28.90362,-23.73037 -50.8931,-29.71603 l -12.3739,-3.36825 -2.25389,-6.90561 c -4.54103,-13.91315 -7.49686,-18.58997 -12.86989,-20.36323 -4.29767,-1.41836 -8.23582,0.002 -9.85417,3.55377 -1.15601,2.53715 -1.4282,2.61332 -7.23771,2.02539 -4.92279,-0.49819 -6.56111,-0.26481 -8.87975,1.26492 -3.08282,2.03389 -9.32516,9.22286 -12.57656,14.48375 -3.23932,5.24132 -8.29271,7.05676 -29.58022,10.62676 -10.98631,1.84244 -23.41736,5.71586 -28.38961,8.84599 -8.84805,5.57001 -13.4442,9.95059 -16.26523,15.50236 -5.4856,10.79565 -26.78175,40.37308 -34.27325,47.60085 -1.96455,1.89539 -3.57191,3.1702 -3.57191,2.8329 0,-1.92235 4.47515,-10.55621 6.90743,-13.32642 3.6753,-4.18594 22.10054,-30.66045 25.20765,-36.2199 3.09251,-5.53332 1.88666,-6.47494 -7.61508,-5.94647 -8.62481,0.47971 -14.36856,2.93701 -21.1142,9.03311 -6.0202,5.44052 -8.91455,11.46868 -10.88348,22.66744 -2.61172,14.85472 -3.00241,15.59818 -18.84982,35.87058 -1.56613,2.00342 -7.67785,11.74259 -13.58162,21.64259 -5.90376,9.9 -12.88961,21.47037 -15.5241,25.71193 -2.63448,4.24157 -4.56693,8.29317 -4.29433,9.00357 0.51171,1.33348 4.17423,2.85202 11.42306,4.73616 5.16173,1.34165 15.58767,9.0485 19.44553,14.37413 3.59919,4.96853 3.75088,6.93115 0.4721,6.10823 -1.32377,-0.33224 -3.23627,-0.1613 -4.25,0.37987 -1.48176,0.79104 -3.28427,-0.0589 -9.19321,-4.3351 -4.04254,-2.92548 -8.76754,-5.84758 -10.5,-6.49355 -8.98783,-3.35126 -10.57382,-4.32816 -11.54372,-7.11041 -1.58861,-4.5571 -4.73103,-5.38769 -11.01398,-2.91118 -8.79688,3.4674 -14.0044,7.65128 -16.68267,13.40333 -3.14318,6.75055 -3.02695,9.16948 0.61561,12.81203 2.29847,2.29848 3.60494,2.87966 5.43871,2.41941 2.70928,-0.67998 4.35117,0.98653 2.64899,2.68871 -1.7074,1.7074 -1.28164,9.74586 0.75279,14.21287 2.55083,5.60088 8.97717,11.1287 13.90559,11.96135 4.32724,0.73108 11.31141,-0.71529 15.05954,-3.11874 4.49621,-2.88314 4.85644,-2.10928 11.24542,24.15739 9.57008,39.34501 25.71229,65.49567 54.9377,89 14.57344,11.72059 20.61422,16.24394 30.98609,23.20245 11.17505,7.49737 35.14812,21.59408 38.52636,22.65437 1.2645,0.39688 4.00355,4.36975 7.28525,10.56695 6.24967,11.80194 10.52718,16.07623 16.08833,16.07623 2.44483,0 4.85313,-0.80453 6.65792,-2.22417 z M 411.42854,543.7123 c 0,-0.41162 -3.2625,-2.00827 -7.25,-3.54813 -9.46798,-3.65624 -10.92088,-4.91661 -9.64272,-8.36489 0.54053,-1.45824 1.67539,-3.17866 2.52192,-3.82314 1.34697,-1.02549 1.24771,-1.35953 -0.79502,-2.67532 -4.62619,-2.97989 -15.53564,-5.87155 -25.83418,-6.84761 -17.80085,-1.68709 -31.42424,-7.47666 -44.63483,-18.96858 -17.14676,-14.916 -25.37927,-31.32004 -25.35039,-50.51302 0.0235,-15.59554 3.89454,-28.07674 17.03565,-54.92672 7.71179,-15.75676 9.62954,-18.2735 8.61062,-11.30004 -2.3332,15.9684 -1.10805,41.41879 2.78996,57.95667 0.83568,3.54553 1.52608,8.08651 1.53421,10.09107 0.0361,8.893 5.12852,19.43785 18.61511,38.54591 2.25518,3.19519 5.85518,9.1098 8,13.14359 5.11696,9.62353 7.48101,11.90455 13.23801,12.77305 6.36437,0.96013 23.49732,-0.95371 37.26256,-4.16243 9.86517,-2.29959 12.76133,-2.57791 21.52229,-2.06825 13.21449,0.76875 13.75915,0.98342 11.85207,4.67131 -0.81139,1.56906 -1.47526,3.57927 -1.47526,4.46712 0,0.88785 -0.95799,3.84118 -2.12886,6.56295 -2.71833,6.31892 -4.20101,6.6893 -18.32566,4.5779 -13.35892,-1.99695 -16.54548,-2.06907 -16.54548,-0.37451 0,1.66055 11.16189,12.7187 12.83801,12.7187 0.70402,0 1.03548,0.39568 0.73659,0.87929 -0.71208,1.15218 -4.5746,2.15278 -4.5746,1.18508 z m 95.22894,-51.25119 c 0.49828,-1.49484 2.77106,-2.31789 2.77106,-1.0035 0,0.53699 -0.7126,1.24979 -1.58356,1.58401 -0.97391,0.37373 -1.43108,0.15024 -1.1875,-0.58051 z m -111.86025,-7.32789 c -22.76402,-3.97791 -40.06528,-17.65371 -50.47444,-39.89759 -5.31913,-11.36672 -8.91758,-28.61598 -8.87894,-42.56147 0.0224,-8.09005 2.79265,-10.91183 4.40515,-4.48712 1.40234,5.58738 10.94915,23.02074 18.07518,33.00699 14.95829,20.96216 40.70042,34.70005 70.48201,37.61436 11.86705,1.16126 13.72473,1.06639 37.49998,-1.91513 3.53565,-0.44339 3.83219,-0.32356 2.6687,1.07835 -0.71991,0.86744 -3.63485,2.88119 -6.47763,4.475 -18.48222,10.36205 -48.36561,15.99532 -67.30001,12.68661 z m 29.13131,-67.81369 c -8.97175,-3.51765 -16.9855,-11.20574 -21.31994,-20.45353 -2.39874,-5.11786 -2.68006,-6.87493 -2.68006,-16.7391 0,-10.47407 0.16576,-11.35773 3.34005,-17.80563 5.4566,-11.08393 15.59852,-16.76344 27.10787,-15.1805 5.45261,0.74992 16.60913,5.73029 23.57973,10.52619 5.46143,3.75756 15.68742,12.63312 16.76876,14.5543 1.16817,2.07544 -0.26968,8.42667 -1.9077,8.42667 -0.76379,0 -1.38871,-0.35702 -1.38871,-0.79338 0,-1.82452 -12.25029,-13.19077 -19.03207,-17.65863 -9.75882,-6.42914 -16.83894,-8.86415 -24.22905,-8.33291 -4.90445,0.35257 -6.28029,0.91734 -9.25243,3.79805 -5.01696,4.86264 -7.48645,12.23267 -7.48645,22.34288 0,14.9572 4.63158,23.88992 15.15064,29.22032 2.62765,1.33154 5.25502,3.31314 5.8386,4.40356 0.58357,1.09042 2.28723,2.64801 3.7859,3.46131 l 2.72486,1.47872 -4,-0.036 c -2.2,-0.0198 -5.35,-0.56535 -7,-1.21228 z m 110.59285,-27.38949 c 0.43204,-2.63016 1.10026,-11.53211 1.48493,-19.78211 0.82205,-17.63036 -0.20865,-25.42621 -4.89846,-37.05033 -4.02219,-9.96937 -14.52198,-27.53659 -20.98574,-35.11131 -2.705,-3.16992 -4.41965,-5.92967 -3.81034,-6.13277 1.97063,-0.65688 11.37353,2.904 21.55273,8.16203 13.02074,6.72581 23.02746,16.1611 27.77685,26.19066 7.31609,15.44979 3.09839,33.39445 -13.85942,58.96647 -6.98222,10.52904 -8.35655,11.42955 -7.26055,4.75736 z m -241.9903,0.78127 c -0.51919,-0.32088 -1.25642,-1.82828 -1.63829,-3.34977 -0.38188,-1.5215 -1.54255,-3.22033 -2.57929,-3.77517 -1.03673,-0.55484 -1.88497,-1.70798 -1.88497,-2.56252 0,-1.16077 0.82194,-0.85972 3.25,1.19036 1.7875,1.50923 5.4772,3.77893 8.19934,5.04378 2.94589,1.36882 4.36266,2.49033 3.5,2.77059 -2.67489,0.86903 -7.8937,1.27177 -8.84679,0.68273 z m 12.9649,-3.64465 c 0.71881,-0.86611 3.36019,-2.66508 5.86974,-3.99772 2.50954,-1.33263 5.68781,-3.17599 7.06281,-4.09635 1.75958,-1.17778 1.46341,-0.61617 -1,1.89625 -3.59089,3.66232 -14.5542,9.35671 -11.93255,6.19782 z m 16.701,-10.58718 c 0.5811,-0.5811 1.64682,-0.85979 2.36826,-0.61931 0.74895,0.24965 0.29565,0.70294 -1.05655,1.05655 -1.66335,0.43497 -2.05378,0.30483 -1.31171,-0.43724 z"
         id="path3351"
         inkscape:connector-curvature="0" />
      <path
         style="fill:#3a393f"
         d="M 408.42854,641.95297 C 372.28143,638.0813 333.497,624.80928 304.08318,606.24603 248.90614,571.42344 204.90279,515.94064 188.39698,460.38 c -6.0593,-20.39639 -10.96844,-53.62039 -10.96844,-74.23207 0,-13.535 2.57302,-36.54153 5.98337,-53.5 13.43309,-66.79814 57.43505,-125.70442 125.77388,-168.37597 7.56791,-4.72549 29.48103,-15.28825 39.34981,-18.96775 12.74636,-4.75238 28.35962,-9.081 42.14583,-11.68451 14.27612,-2.69603 46.67572,-3.73097 64.74711,-2.06823 40.14714,3.69393 81.69002,19.26554 115.17165,43.17004 47.26851,33.74776 84.08145,81.26008 101.72761,131.2939 21.12643,59.90175 15.85342,135.51025 -13.32975,191.13252 -22.79218,43.44123 -55.14612,79.38885 -95.56951,106.1848 -31.59987,20.94699 -65.63384,33.48348 -102.65858,37.81449 -11.60496,1.35751 -42.71835,1.83647 -52.34142,0.80575 z m 14.7578,-46.75469 c 1.95099,-1.64166 3.63132,-2.26135 5.09433,-1.87877 3.7663,0.98491 9.76385,-4.0005 15.29672,-12.71528 4.55057,-7.16757 5.6486,-8.23406 11.19822,-10.87658 3.38411,-1.61138 10.87793,-4.12367 16.65293,-5.58286 14.5448,-3.67509 23.89871,-7.79515 31.88554,-14.04441 5.59532,-4.37804 8.66004,-8.06666 17.15016,-20.64153 16.33394,-24.1925 36.78916,-50.36325 36.91949,-47.23541 0.0246,0.59153 -2.31769,4.23512 -5.20519,8.09686 -2.8875,3.86174 -7.5,10.25299 -10.25,14.20277 -2.75,3.94978 -8.76072,12.45613 -13.35715,18.903 -8.68031,12.17485 -12.14285,18.06691 -12.14285,20.66297 0,2.13089 4.14372,2.9333 11.2904,2.18633 7.96555,-0.83257 14.0286,-3.85112 20.30683,-10.10997 6.12478,-6.10587 7.96677,-10.99447 9.40419,-24.95851 1.20575,-11.71353 3.04533,-15.54955 14.00439,-29.20302 3.90955,-4.87077 11.44047,-15.60594 16.73537,-23.85594 20.32721,-31.6719 22.29073,-34.47071 24.54149,-34.98147 1.21953,-0.27675 5.36733,-0.97221 9.21733,-1.54546 8.10583,-1.20693 16.56933,-4.97446 19.47606,-8.66976 1.33725,-1.70004 2.02394,-4.06983 2.02394,-6.98468 0,-3.8897 -0.36379,-4.61319 -3.07487,-6.11514 -6.66422,-3.692 -6.75725,-3.88334 -3.25185,-6.68875 8.19109,-6.55542 3.54109,-21.28343 -8.68973,-27.52313 -4.64886,-2.37167 -7.81112,-2.47731 -14.39248,-0.48079 -2.69991,0.81905 -6.17884,1.48918 -7.73095,1.48918 -3.11199,0 -2.81929,0.69126 -5.29282,-12.5 -2.20184,-11.7424 -4.24474,-20.62191 -5.47909,-23.8151 -0.59852,-1.5483 -1.08821,-4.51865 -1.08821,-6.60078 0,-4.22354 -0.69223,-6.60054 -5.70328,-19.58412 -7.25743,-18.80393 -11.08852,-25.30419 -21.27104,-36.0908 -5.23912,-5.54994 -12.00068,-13.15672 -15.02568,-16.90396 -6.71291,-8.31565 -22.54726,-23.17352 -30.58022,-28.6944 -7.78238,-5.34865 -18.7508,-10.34498 -29.34833,-13.36875 -4.7143,-1.34512 -10.44505,-2.98162 -12.73501,-3.63667 -3.37017,-0.96405 -4.27183,-1.73239 -4.73178,-4.03212 -0.96447,-4.82233 -5.73648,-16.10732 -8.22137,-19.44211 -4.52364,-6.07083 -12.99612,-6.46981 -15.60905,-0.73504 -1.15601,2.53715 -1.4282,2.61332 -7.23771,2.02539 -4.92279,-0.49819 -6.56111,-0.26481 -8.87975,1.26492 -2.9514,1.94719 -8.33736,8.07621 -12.65678,14.40294 -3.80934,5.5796 -8.00646,7.10302 -29.5,10.70757 -10.98631,1.84244 -23.41736,5.71586 -28.38961,8.84599 -8.84805,5.57001 -13.4442,9.95059 -16.26523,15.50236 -5.4856,10.79565 -26.78175,40.37308 -34.27325,47.60085 -1.96455,1.89539 -3.57191,3.1702 -3.57191,2.8329 0,-1.92235 4.47515,-10.55621 6.90743,-13.32642 3.6753,-4.18594 22.10054,-30.66045 25.20765,-36.2199 3.09251,-5.53332 1.88666,-6.47494 -7.61508,-5.94647 -8.62481,0.47971 -14.36856,2.93701 -21.1142,9.03311 -6.0202,5.44052 -8.91455,11.46868 -10.88348,22.66744 -2.61172,14.85472 -3.00241,15.59818 -18.84982,35.87058 -1.56613,2.00342 -7.67785,11.74259 -13.58162,21.64259 -5.90376,9.9 -12.88961,21.47037 -15.5241,25.71193 -2.63448,4.24157 -4.56693,8.29317 -4.29433,9.00357 0.51171,1.33348 4.17423,2.85202 11.42306,4.73616 5.16173,1.34165 15.58767,9.0485 19.44553,14.37413 3.59919,4.96853 3.75088,6.93115 0.4721,6.10823 -1.32377,-0.33224 -3.23627,-0.1613 -4.25,0.37987 -1.48176,0.79104 -3.28427,-0.0589 -9.19321,-4.3351 -4.04254,-2.92548 -8.76754,-5.84758 -10.5,-6.49355 -8.98783,-3.35126 -10.57382,-4.32816 -11.54372,-7.11041 -1.58861,-4.5571 -4.73103,-5.38769 -11.01398,-2.91118 -8.79688,3.4674 -14.0044,7.65128 -16.68267,13.40333 -3.14318,6.75055 -3.02695,9.16948 0.61561,12.81203 2.29847,2.29848 3.60494,2.87966 5.43871,2.41941 2.70928,-0.67998 4.35117,0.98653 2.64899,2.68871 -1.7074,1.7074 -1.28164,9.74586 0.75279,14.21287 2.55083,5.60088 8.97717,11.1287 13.90559,11.96135 4.32724,0.73108 11.31141,-0.71529 15.05954,-3.11874 4.49875,-2.88477 4.88871,-2.04583 11.22884,24.15739 7.0875,29.29198 18.54899,52.22061 36.10222,72.22222 10.1399,11.55424 42.11948,35.99435 64.44451,49.25113 16.70302,9.91839 21.89373,12.83178 23.92,13.42561 1.28659,0.37705 3.94624,4.21938 7.28525,10.52481 6.27377,11.84745 10.52102,16.07623 16.14646,16.07623 2.66744,0 4.80265,-0.76922 6.79973,-2.44965 z m -11.7578,-52.02272 c 0,-1.90615 1.11453,-2.41738 3.43362,-1.575 1.93713,0.70364 1.58413,1.19883 -1.68362,2.36179 -1.13356,0.40343 -1.75,0.12628 -1.75,-0.78679 z m 95.22894,-50.71445 c 0.49828,-1.49484 2.77106,-2.31789 2.77106,-1.0035 0,0.53699 -0.7126,1.24979 -1.58356,1.58401 -0.97391,0.37373 -1.43108,0.15024 -1.1875,-0.58051 z m -107.72894,-6.52161 -4,-0.48049 4.5,-1.69899 c 5.1322,-1.93769 5.41358,-3.21876 2.48772,-11.32636 -1.32978,-3.68486 -2.73429,-5.37716 -6.43204,-7.75 -2.60193,-1.66965 -5.10595,-3.03573 -5.56449,-3.03573 -0.45854,0 -1.54414,-0.62101 -2.41245,-1.38003 -0.86831,-0.75902 -4.72874,-3.07116 -8.57874,-5.1381 -3.85,-2.06693 -7.9,-4.54049 -9,-5.49679 -3.10267,-2.69736 -9.03885,-4.30225 -11.34603,-3.06748 -2.41331,1.29156 -3.8356,-0.16438 -4.31548,-4.4176 -0.26283,-2.32942 -0.77017,-2.92502 -2.26973,-2.66454 -1.13559,0.19725 -2.65237,-0.62058 -3.68161,-1.98506 -2.90993,-3.85779 -3.46615,-1.12059 -1.10836,5.45435 3.56259,9.9347 2.3718,10.32804 -2.80433,0.92631 -5.31179,-9.64814 -8.99959,-26.60903 -8.95915,-41.20483 0.0224,-8.09005 2.79265,-10.91183 4.40515,-4.48712 1.40234,5.58738 10.94915,23.02074 18.07518,33.00699 14.95829,20.96216 40.70042,34.70005 70.48201,37.61436 11.86705,1.16126 13.72473,1.06639 37.49998,-1.91513 3.53565,-0.44339 3.83219,-0.32356 2.6687,1.07835 -1.83283,2.20842 -10.37952,6.86912 -18.56459,10.12367 -13.39128,5.32465 -39.13999,9.27868 -51.08174,7.84422 z m -73.82846,-60.96621 c -1.49053,-5.32362 -3.67725,-15.70581 -4.70576,-22.34224 -1.06031,-6.8416 -0.96912,-8.16166 1.01513,-14.69436 1.19905,-3.94762 2.89328,-7.76503 3.76494,-8.48313 1.4231,-1.17238 1.51277,-0.79536 0.87859,3.69437 -1.58276,11.20538 -1.80837,21.57437 -0.69326,31.86239 1.0871,10.02956 0.97401,14.36909 -0.25964,9.96297 z m 90.40519,-12.91425 c -2.67972,-2.25483 -4.15155,-5.41111 -2.5233,-5.41111 1.26894,0 7.44651,5.59973 7.44654,6.75 5e-5,1.9217 -1.54884,1.50048 -4.92324,-1.33889 z m -6.32673,-7.98807 c -0.4125,-0.416 -0.75,-1.67137 -0.75,-2.78971 0,-1.47178 0.30207,-1.73126 1.09378,-0.93955 0.60158,0.60158 0.93908,1.85695 0.75,2.78971 -0.18908,0.93276 -0.68128,1.35556 -1.09378,0.93955 z m -5.25,-6.42304 c -0.81551,-1.31952 0.38021,-3.19207 1.5691,-2.45729 1.21461,0.75067 1.20672,3.45729 -0.0101,3.45729 -0.51754,0 -1.2191,-0.45 -1.55902,-1 z M 535.0084,386.43718 c 0.72345,-4.55909 1.58788,-9.7707 1.92096,-11.58136 0.33309,-1.81066 0.69416,-7.91991 0.80239,-13.57612 0.17675,-9.23655 0.46304,-10.68603 2.81091,-14.23112 2.85103,-4.30483 3.58993,-7.60691 4.5268,-20.22978 0.55565,-7.48649 0.40275,-8.62053 -1.51137,-11.20951 -2.18709,-2.9582 -2.7303,-4.96136 -1.34539,-4.96136 2.02083,0 11.41771,11.14064 13.91737,16.5 2.39205,5.12863 2.79236,7.23444 2.75642,14.5 -0.0461,9.32116 -2.00199,16.23875 -7.94467,28.09897 -3.98627,7.95569 -14.5716,24.10897 -16.13103,24.61606 -0.80146,0.26062 -0.74555,-1.98213 0.19761,-7.92578 z m -244.06776,1.26585 c -0.37106,-1.68945 -1.53809,-3.53382 -2.59338,-4.0986 -1.0553,-0.56478 -1.91872,-1.72604 -1.91872,-2.58058 0,-1.16077 0.82194,-0.85972 3.25,1.19036 1.7875,1.50923 5.5,3.79484 8.25,5.07912 4.98994,2.33036 4.12322,3.30244 -1.15518,1.2956 -2.25568,-0.85761 -3.01098,-0.75046 -3.97171,0.56342 -1.02929,1.40764 -1.27565,1.21578 -1.86101,-1.44932 z m 14.55535,-0.63637 c 0.71881,-0.86611 3.36019,-2.66508 5.86974,-3.99772 2.50954,-1.33263 5.68781,-3.17599 7.06281,-4.09635 1.75958,-1.17778 1.46341,-0.61617 -1,1.89625 -3.59089,3.66232 -14.5542,9.35671 -11.93255,6.19782 z m 159.93255,-11.9774 c -3.53319,-4.95158 -14.08428,-12.7942 -23.67934,-17.60083 -6.52344,-3.26791 -9.59868,-4.19898 -15.19017,-4.59905 -6.26053,-0.44794 -7.48823,-0.22184 -11.47176,2.11266 -2.45351,1.43785 -6.30544,4.70975 -8.55983,7.27088 -4.45028,5.05578 -5.22302,4.49879 -2.14071,-1.54304 4.79795,-9.40476 15.56075,-15.02346 26.0219,-13.58469 9.41114,1.29436 25.19788,10.43321 36.76991,21.28589 4.18079,3.92089 4.8465,5.49883 3.64301,8.63506 -0.94702,2.4679 -2.67285,1.83527 -5.39301,-1.97688 z m -143.23155,1.39022 c 0.5811,-0.5811 1.64682,-0.85979 2.36826,-0.61931 0.74895,0.24965 0.29565,0.70294 -1.05655,1.05655 -1.66335,0.43497 -2.05378,0.30483 -1.31171,-0.43724 z m 33.23583,-96.08155 c 0.007,-1.89734 5.38587,-9.60617 10.0921,-14.46233 7.34609,-7.58012 21.2486,-15.88671 29.6935,-17.74152 3.61882,-0.79483 4.41058,0.74101 1.25315,2.43082 -1.08427,0.58028 -2.24577,2.58683 -2.6046,4.49955 -0.35621,1.89872 -1.27557,3.97336 -2.04304,4.6103 -1.80891,1.50126 -1.75955,2.40616 0.24032,4.40604 2.22936,2.22935 1.30939,2.88837 -9.13571,6.5444 -4.95,1.73261 -12.77479,4.90802 -17.38842,7.05647 -9.16358,4.26724 -10.11367,4.51693 -10.1073,2.65627 z m 161.80822,-9.43311 c 0.72187,-0.28887 1.58438,-0.25335 1.91667,0.0789 0.33229,0.33229 -0.25834,0.56864 -1.3125,0.52522 -1.16495,-0.048 -1.4019,-0.28494 -0.60417,-0.60416 z m -19.3125,-2.33018 c -3.3,-0.38958 -9.4875,-1.06199 -13.75,-1.49425 -4.2625,-0.43226 -7.75,-1.1699 -7.75,-1.6392 0,-0.46929 0.675,-0.85326 1.5,-0.85326 1.93952,0 1.93215,-2.39646 -0.0123,-4.01023 -1.22314,-1.01512 -1.27357,-1.54281 -0.26373,-2.7596 1.03041,-1.24157 0.85782,-1.76392 -0.98767,-2.98929 -3.20436,-2.12761 -2.93092,-5.81995 0.51373,-6.93709 1.5125,-0.49052 9.5,-0.82798 17.75,-0.74991 15.46309,0.14632 20.01346,1.10243 23.94157,5.03054 1.49764,1.49765 1.50374,1.8501 0.0699,4.03841 -1.25005,1.9078 -1.33473,2.8389 -0.4146,4.5582 0.95616,1.7866 0.84166,2.39074 -0.6614,3.4898 -0.99978,0.73105 -2.85675,1.32917 -4.12663,1.32917 -1.6422,0 -2.30887,0.57748 -2.30887,2 0,2.21502 -1.91169,2.35474 -13.5,0.98671 z m -64.7,-7.18671 c 0.93333,-0.93333 1.46667,-0.93333 2.4,0 0.93333,0.93333 0.66667,1.2 -1.2,1.2 -1.86667,0 -2.13333,-0.26667 -1.2,-1.2 z m 2.6807,-4.19045 c -3.89118,-2.8453 2.17151,-9.10819 7.01706,-7.24878 1.9417,0.7451 1.91745,3.60142 -0.0545,6.41672 -1.78337,2.54612 -4.22022,2.83733 -6.9626,0.83206 z m 9.2693,-14.31528 c 1.2375,-0.23836 3.2625,-0.23836 4.5,0 1.2375,0.23835 0.225,0.43337 -2.25,0.43337 -2.475,0 -3.4875,-0.19502 -2.25,-0.43337 z M 262.59818,364.41757 c -0.76683,-0.76683 -1.79534,-0.79607 -3.36499,-0.0957 -2.0922,0.93356 -2.00992,1.01583 1.10438,1.10438 2.45537,0.0698 3.06646,-0.20286 2.26061,-1.00871 z"
         id="path3349"
         inkscape:connector-curvature="0" />
    </g>
  </g>
</svg>
