<?xml version="1.0" encoding="UTF-8" standalone="no"?>
<!-- Created with Inkscape (http://www.inkscape.org/) -->

<svg
   width="512"
   height="512"
   viewBox="0 0 512 512"
   version="1.1"
   id="svg1"
   inkscape:version="1.3 (0e150ed6c4, 2023-07-21)"
   sodipodi:docname="icon.svg"
   inkscape:export-filename="icon.png"
   inkscape:export-xdpi="22"
   inkscape:export-ydpi="22"
   xmlns:inkscape="http://www.inkscape.org/namespaces/inkscape"
   xmlns:sodipodi="http://sodipodi.sourceforge.net/DTD/sodipodi-0.dtd"
   xmlns:xlink="http://www.w3.org/1999/xlink"
   xmlns="http://www.w3.org/2000/svg"
   xmlns:svg="http://www.w3.org/2000/svg">
  <sodipodi:namedview
     id="namedview1"
     pagecolor="#505050"
     bordercolor="#eeeeee"
     borderopacity="1"
     inkscape:showpageshadow="0"
     inkscape:pageopacity="0"
     inkscape:pagecheckerboard="0"
     inkscape:deskcolor="#505050"
     inkscape:document-units="px"
     inkscape:zoom="1.1338568"
     inkscape:cx="272.96217"
     inkscape:cy="269.43438"
     inkscape:window-width="1920"
     inkscape:window-height="1017"
     inkscape:window-x="-8"
     inkscape:window-y="-8"
     inkscape:window-maximized="1"
     inkscape:current-layer="layer1" />
  <defs
     id="defs1">
    <linearGradient
       id="linearGradient26"
       inkscape:collect="always">
      <stop
         style="stop-color:#000000;stop-opacity:0.34337351;"
         offset="0"
         id="stop26" />
      <stop
         style="stop-color:#ffffff;stop-opacity:0.33734939;"
         offset="1"
         id="stop27" />
    </linearGradient>
    <linearGradient
       id="linearGradient23"
       inkscape:collect="always">
      <stop
         style="stop-color:#ffffff;stop-opacity:0.59638554;"
         offset="0"
         id="stop24" />
      <stop
         style="stop-color:#000000;stop-opacity:0.5481928;"
         offset="1"
         id="stop25" />
    </linearGradient>
    <mask
       maskUnits="userSpaceOnUse"
       id="mask6">
      <circle
         style="fill:#000000;stroke-width:10;stroke-linejoin:round"
         id="circle7"
         cx="100.52029"
         cy="460.88074"
         r="143.69183" />
    </mask>
    <clipPath
       clipPathUnits="userSpaceOnUse"
       id="clipPath14">
      <rect
         style="fill:#f3e1bf;stroke-width:10;stroke-linejoin:round"
         id="rect15"
         width="487.67844"
         height="487.67844"
         x="14.967113"
         y="11.225335"
         ry="97.28624" />
    </clipPath>
    <clipPath
       clipPathUnits="userSpaceOnUse"
       id="clipPath15">
      <rect
         style="fill:#f3e1bf;stroke-width:10;stroke-linejoin:round"
         id="rect16"
         width="487.67844"
         height="487.67844"
         x="14.967113"
         y="11.225335"
         ry="97.28624" />
    </clipPath>
    <clipPath
       clipPathUnits="userSpaceOnUse"
       id="clipPath16">
      <rect
         style="fill:#f3e1bf;stroke-width:10;stroke-linejoin:round"
         id="rect17"
         width="487.67844"
         height="487.67844"
         x="14.967113"
         y="11.225335"
         ry="97.28624" />
    </clipPath>
    <clipPath
       clipPathUnits="userSpaceOnUse"
       id="clipPath17">
      <rect
         style="fill:#f3e1bf;stroke-width:10;stroke-linejoin:round"
         id="rect18"
         width="487.67844"
         height="487.67844"
         x="14.967113"
         y="11.225335"
         ry="97.28624" />
    </clipPath>
    <clipPath
       clipPathUnits="userSpaceOnUse"
       id="clipPath18">
      <rect
         style="fill:#f3e1bf;stroke-width:10;stroke-linejoin:round"
         id="rect19"
         width="487.67844"
         height="487.67844"
         x="14.967113"
         y="11.225335"
         ry="97.28624" />
    </clipPath>
    <radialGradient
       inkscape:collect="always"
       xlink:href="#linearGradient23"
       id="radialGradient28"
       cx="82.562935"
       cy="130.15794"
       fx="82.562935"
       fy="130.15794"
       r="244.51447"
       gradientTransform="matrix(0.01289041,2.1259026,-2.147614,0.01297836,329.02196,-129.34202)"
       gradientUnits="userSpaceOnUse" />
    <radialGradient
       inkscape:collect="always"
       xlink:href="#linearGradient26"
       id="radialGradient29"
       cx="115.40435"
       cy="202.20018"
       fx="115.40435"
       fy="202.20018"
       r="184.32666"
       gradientTransform="matrix(-0.03747499,2.1224399,-2.0245563,-0.03562673,479.74593,-182.69102)"
       gradientUnits="userSpaceOnUse" />
  </defs>
  <g
     inkscape:label="Calque 1"
     inkscape:groupmode="layer"
     id="layer1">
    <rect
       style="fill:#f3e1bf;stroke:none;stroke-width:10.4691;stroke-linejoin:round;stroke-opacity:1"
       id="rect1"
       width="510.98544"
       height="510.12735"
       x="1.3186935"
       y="1.0907544"
       ry="101.76455" />
    <path
       id="path1"
       style="fill:#f0f600;stroke-width:10;stroke-linejoin:round"
       d="M 252.21484,63.189453 A 380.05325,380.05325 0 0 0 -127.83789,443.24219 380.05325,380.05325 0 0 0 252.21484,823.29492 380.05325,380.05325 0 0 0 632.26758,443.24219 380.05325,380.05325 0 0 0 252.21484,63.189453 Z m 0,232.832027 A 147.21962,147.21962 0 0 1 399.43359,443.24219 147.21962,147.21962 0 0 1 252.21484,590.46094 147.21962,147.21962 0 0 1 104.99609,443.24219 147.21962,147.21962 0 0 1 252.21484,296.02148 Z"
       clip-path="url(#clipPath18)"
       transform="matrix(1.0477917,0,0,1.0460322,-14.363724,-10.651308)" />
    <path
       id="circle2"
       style="fill:#d484ca;stroke-width:10;stroke-linejoin:round"
       d="M 252.21484,101.99414 A 341.24765,341.24765 0 0 0 -89.033203,443.24219 341.24765,341.24765 0 0 0 252.21484,784.49023 341.24765,341.24765 0 0 0 593.46289,443.24219 341.24765,341.24765 0 0 0 252.21484,101.99414 Z m 0,194.02734 A 147.21962,147.21962 0 0 1 399.43359,443.24219 147.21962,147.21962 0 0 1 252.21484,590.46094 147.21962,147.21962 0 0 1 104.99609,443.24219 147.21962,147.21962 0 0 1 252.21484,296.02148 Z"
       clip-path="url(#clipPath17)"
       transform="matrix(1.0477917,0,0,1.0460322,-14.363724,-10.651308)" />
    <path
       id="circle3"
       style="fill:#e77728;stroke-width:10;stroke-linejoin:round"
       d="M 252.21484,146.0918 A 297.15036,297.15036 0 0 0 -44.935547,443.24219 297.15036,297.15036 0 0 0 252.21484,740.39258 297.15036,297.15036 0 0 0 549.36523,443.24219 297.15036,297.15036 0 0 0 252.21484,146.0918 Z m 0,149.92968 A 147.21962,147.21962 0 0 1 399.43359,443.24219 147.21962,147.21962 0 0 1 252.21484,590.46094 147.21962,147.21962 0 0 1 104.99609,443.24219 147.21962,147.21962 0 0 1 252.21484,296.02148 Z"
       clip-path="url(#clipPath16)"
       transform="matrix(1.0477917,0,0,1.0460322,-14.363724,-10.651308)" />
    <path
       id="circle4"
       style="fill:#096e00;stroke-width:10;stroke-linejoin:round"
       d="M 252.21484,199.00781 A 244.23363,244.23363 0 0 0 7.9804688,443.24219 244.23363,244.23363 0 0 0 252.21484,687.47461 244.23363,244.23363 0 0 0 496.44922,443.24219 244.23363,244.23363 0 0 0 252.21484,199.00781 Z m 0,97.01367 A 147.21962,147.21962 0 0 1 399.43359,443.24219 147.21962,147.21962 0 0 1 252.21484,590.46094 147.21962,147.21962 0 0 1 104.99609,443.24219 147.21962,147.21962 0 0 1 252.21484,296.02148 Z"
       clip-path="url(#clipPath15)"
       transform="matrix(1.0477917,0,0,1.0460322,-14.363724,-10.651308)" />
    <path
       id="circle8"
       style="fill:#048a81;stroke-width:10;stroke-linejoin:round"
       d="m 252.21484,251.92578 c -105.66102,2.7e-4 -191.316137,85.65539 -191.316402,191.31641 2.71e-4,105.66102 85.655382,191.31613 191.316402,191.3164 105.66102,-2.7e-4 191.31614,-85.65538 191.31641,-191.3164 -2.7e-4,-105.66103 -85.65538,-191.31614 -191.31641,-191.31641 z m 0,45.85959 c 81.30724,4.8e-4 147.21935,64.14958 147.21875,145.45682 -4.8e-4,81.30647 -65.91228,147.21827 -147.21875,147.21875 -81.30647,-4.8e-4 -147.21827,-65.91228 -147.21875,-147.21875 -6e-4,-81.30724 65.91151,-145.45634 147.21875,-145.45682 z"
       clip-path="url(#clipPath14)"
       sodipodi:nodetypes="cccccccccc"
       transform="matrix(1.0477917,0,0,1.0460322,-14.363724,-10.651308)" />
    <rect
       style="mix-blend-mode:luminosity;fill:none;stroke:url(#radialGradient28);stroke-width:62.8147;stroke-linecap:butt;stroke-linejoin:bevel;stroke-dasharray:none"
       id="rect20"
       width="449.53299"
       height="448.31696"
       x="32.275883"
       y="32.45723"
       ry="70.859344" />
    <rect
       style="mix-blend-mode:luminosity;fill:url(#radialGradient29);stroke:none;stroke-width:31.4074;stroke-linejoin:round;stroke-dasharray:none"
       id="rect25"
       width="386.27191"
       height="384.70071"
       x="63.722332"
       y="63.613434"
       ry="37.186497" />
  </g>
</svg>
